<svg xmlns="http://www.w3.org/2000/svg" xmlns:xlink="http://www.w3.org/1999/xlink" id="body_2" preserveAspectRatio="xMinYMin meet" viewBox="0 0 1121 793"><defs><clipPath id="1"><path id="" clip-rule="evenodd" transform="matrix(1 0 0 1 0 0)" d="M0 595L0 0L0 0L841 0L841 0L841 595L841 595L0 595z" /></clipPath><clipPath id="2"><path id="" clip-rule="evenodd" transform="matrix(1 0 0 1 0 0)" d="M0 595L280.45 595L280.45 595L280.45 0L280.45 0L0 0z" /></clipPath><clipPath id="3"><path id="" clip-rule="evenodd" transform="matrix(1 0 0 1 0 0)" d="M0 595L841 595L841 595L841 0L841 0L0 0z" /></clipPath></defs><g transform="matrix(1.333333 0 0 1.333333 0 0)"><g clip-path="url(#1)"><path id="26" transform="matrix(1 0 0 -1 0 595)" d="M356.3596 204.3276C 356.2864 204.3487 356.2864 204.3487 356.2864 204.3487C 356.2864 197.8313 356.2864 197.8313 356.2864 197.8313C 355.0597 197.7776 355.0597 197.7776 355.0597 197.7776C 355.0597 204.3487 355.0597 204.3487 355.0597 204.3487C 355.0597 204.4561 355.0597 204.4561 355.0597 204.4561C 355.0597 205.529 355.0597 205.529 355.0597 205.529C 355.6997 208.0502 357.9664 209.9276 360.6597 209.9276C 360.6597 208.4525 360.6597 208.4525 360.6597 208.4525C 358.3931 208.3987 356.5531 206.6286 356.3596 204.3276" stroke="none" fill="#FFFFFF" fill-rule="evenodd" /><path id="27" transform="matrix(1 0 0 -1 0 595)" d="M358.0931 213.8346C 358.0931 218.7846 358.0931 218.7846 358.0931 218.7846C 358.6513 218.7846 358.6513 218.7846 358.6513 218.7846C 358.6513 213.8102 358.6513 213.8102 358.6513 213.8102C 358.7312 213.0078 359.369 212.366 360.1931 212.366C 360.1931 211.8846 360.1931 211.8846 360.1931 211.8846C 360.1666 211.8846 360.1399 211.8846 360.1133 211.8846C 359.0235 211.8846 358.1197 212.7403 358.0931 213.8346" stroke="none" fill="#FFFFFF" fill-rule="evenodd" /><path id="28" transform="matrix(1 0 0 -1 0 595)" d="M356.1144 213.7345C 356.0366 212.7137 355.2063 211.8846 354.1424 211.8846C 354.1164 211.8846 354.0904 211.8846 354.0644 211.8846C 354.0644 212.366 354.0644 212.366 354.0644 212.366C 354.8429 212.366 355.4916 213.0078 355.5435 213.8102C 355.5435 218.7846 355.5435 218.7846 355.5435 218.7846C 356.1144 218.7846 356.1144 218.7846 356.1144 218.7846C 356.1144 213.8369 356.1144 213.8369 356.1144 213.8369C 356.1144 213.8102 356.1144 213.8102 356.1144 213.8346L356.1144 213.8346L356.1144 213.7345z" stroke="none" fill="#FFFFFF" fill-rule="evenodd" /><path id="29" transform="matrix(1 0 0 -1 0 595)" d="M344.281 203.0039C 344.0197 204.7302 344.7963 206.533 346.403 207.4478C 348.0096 208.3897 349.9377 208.1744 351.281 207.0539L351.281 207.0539L344.281 203.0039zM354.331 204.6539C 352.8832 204.4341 352.8832 204.4341 352.8832 204.4341C 353.2046 202.6583 352.4281 200.7748 350.7678 199.833C 348.6792 198.6222 346.0281 199.3218 344.8229 201.4206C 353.0975 206.2371 353.0975 206.2371 353.0975 206.2371C 353.6599 206.5599 353.6599 206.5599 353.6599 206.5599C 353.6331 206.5599 353.6331 206.5869 353.6331 206.5869C 352.0264 209.4121 348.4649 210.3539 345.6799 208.7395C 342.8682 207.125 341.931 203.5463 343.5377 200.721C 345.1444 197.9226 348.706 196.9539 351.4908 198.5953C 353.6866 199.8599 354.731 202.3085 354.331 204.6539" stroke="none" fill="#FFFFFF" fill-rule="evenodd" /><path id="30" transform="matrix(1 0 0 -1 0 595)" d="M350.9388 213.7771C 350.9301 213.8177 350.9301 213.8177 350.9301 213.8177C 350.9301 213.8177 350.9301 213.8177 350.9301 213.8446C 350.9301 214.7341 350.9301 214.7341 350.9301 214.7341C 348.4476 214.7341 348.4476 214.7341 348.4476 214.7341C 348.4476 213.8446 348.4476 213.8446 348.4476 213.8446C 348.4476 213.8177 348.4476 213.8177 348.4476 213.8177C 348.4476 213.7638 348.4476 213.7638 348.4476 213.7638C 348.3675 212.7126 347.4866 211.8771 346.4189 211.8771C 346.3922 211.8771 346.3655 211.8771 346.3387 211.8771C 346.3387 212.3622 346.3387 212.3622 346.3387 212.3622C 347.1396 212.3622 347.8069 213.0091 347.8603 213.8177C 347.8603 214.7341 347.8603 214.7341 347.8603 214.7341C 347.8603 215.3271 347.8603 215.3271 347.8603 215.3271C 348.4476 215.3271 348.4476 215.3271 348.4476 215.3271C 350.9301 215.3271 350.9301 215.3271 350.9301 215.3271C 351.1169 215.3271 351.1169 215.3271 351.1169 215.3271C 351.5173 215.3271 351.5173 215.3271 351.5173 215.3271C 351.5173 213.8177 351.5173 213.8177 351.5173 213.8177C 351.5707 213.0091 352.238 212.3622 353.0388 212.3622C 353.0388 211.8771 353.0388 211.8771 353.0388 211.8771C 353.0122 211.8771 352.9854 211.8771 352.9586 211.8771C 351.891 211.8771 351.0102 212.7125 350.9388 213.7771" stroke="none" fill="#FFFFFF" fill-rule="evenodd" /><path id="31" transform="matrix(1 0 0 -1 0 595)" d="M352.3284 215.9137L347.0784 215.9138L347.0784 215.9138L347.0784 215.5638L347.0784 215.5638L346.5284 215.5638L346.5284 215.5638L346.5284 215.9138L346.5284 215.9138L346.5284 216.4638L346.5284 216.4638L347.0784 216.4638L347.0784 216.4638L352.3284 216.4638L352.3284 216.4638L352.8784 216.4638L352.8784 216.4638L352.8784 215.9137L352.8784 215.9137L352.8784 215.5638L352.8784 215.5638L352.3284 215.5638L352.3284 215.5638L352.3284 215.9137z" stroke="none" fill="#FFFFFF" fill-rule="evenodd" /><path id="32" transform="matrix(1 0 0 -1 0 595)" d="M349.968 217.4424L351.718 217.4423L351.718 217.4423L351.718 216.8924L351.718 216.8924L347.718 216.8924L347.718 216.8924L347.718 217.4424L347.718 217.4424L349.418 217.4424L349.418 217.4424L349.418 218.0424L349.418 218.0424L346.718 218.0424L346.718 218.0424L346.718 218.5924L346.718 218.5924L349.418 218.5924L349.418 218.5924L349.418 219.5424L349.418 219.5424L349.968 219.5424L349.968 219.5424L349.968 218.5924L349.968 218.5924L352.668 218.5924L352.668 218.5924L352.668 218.0423L352.668 218.0423L349.968 218.0424L349.968 218.0424L349.968 217.4424z" stroke="none" fill="#FFFFFF" fill-rule="evenodd" /><path id="33" transform="matrix(1 0 0 -1 0 595)" d="M341.4857 211.8243L340.9357 211.8243L340.9357 211.8243L340.9357 212.3743L340.9357 212.3743L340.9357 215.8743L340.9357 215.8743L341.4357 215.8743L341.4357 215.8743L342.1357 216.2743L342.1357 216.2743L342.3857 215.7743L342.3857 215.7743L341.4857 215.2243L341.4857 215.2243L341.4857 214.1243L341.4857 214.1243L342.6857 214.1243L342.6857 214.1243L342.6857 213.5743L342.6857 213.5743L341.4857 213.5743L341.4857 213.5743L341.4857 212.3743L341.4857 212.3743L344.5857 212.3743L344.5857 212.3743L344.5857 213.5743L344.5857 213.5743L343.4357 213.5743L343.4357 213.5743L343.4357 214.1243L343.4357 214.1243L344.5857 214.1243L344.5857 214.1243L344.5857 215.3243L344.5857 215.3243L343.4357 215.3243L343.4357 215.3243L343.4357 215.8743L343.4357 215.8743L344.5857 215.8743L344.5857 215.8743L345.1857 215.8743L345.1857 215.8743L345.1857 211.8243L345.1857 211.8243L344.5857 211.8243L344.5857 211.8243L341.4857 211.8243z" stroke="none" fill="#FFFFFF" fill-rule="evenodd" /><path id="34" transform="matrix(1 0 0 -1 0 595)" d="M344.0164 216.8347L344.6664 217.8847L344.6664 217.8847L345.1664 217.5847L345.1664 217.5847L344.4664 216.5347L344.4664 216.5347L344.0164 216.8347z" stroke="none" fill="#FFFFFF" fill-rule="evenodd" /><path id="35" transform="matrix(1 0 0 -1 0 595)" d="M343.4602 217.0241L342.9602 216.7241L342.9602 216.7241L342.3102 217.7741L342.3102 217.7741L342.7603 218.0741L342.7603 218.0741L343.4602 217.0241z" stroke="none" fill="#FFFFFF" fill-rule="evenodd" /><path id="36" transform="matrix(1 0 0 -1 0 595)" d="M341.1252 217.5847L341.6252 217.8847L341.6252 217.8847L342.2753 216.8347L342.2753 216.8347L341.8252 216.5347L341.8252 216.5347L341.1252 217.5847z" stroke="none" fill="#FFFFFF" fill-rule="evenodd" /><path id="37" transform="matrix(1 0 0 -1 0 595)" d="M340.9357 218.7424L344.7857 219.5424L344.7857 219.5424L344.9357 219.0424L344.9357 219.0424L341.0857 218.1924L341.0857 218.1924L340.9357 218.7424z" stroke="none" fill="#FFFFFF" fill-rule="evenodd" /><path id="38" transform="matrix(1 0 0 -1 0 595)" d="M339.4387 215.7268L339.4887 215.7768L339.4887 215.7768L340.5887 213.8768L340.5887 213.8768L340.0887 213.5768L340.0887 213.5768L339.4387 214.8268L339.4387 214.8268L339.4387 211.8268L339.4387 211.8268L338.7887 211.8268L338.7887 211.8268L338.7887 215.2268L338.7887 215.2268L337.7387 213.3768L337.7387 213.3768L337.2387 213.7268L337.2387 213.7268L338.7887 216.4268L338.7887 216.4268L338.7887 216.8268L338.7887 216.8268L337.4887 216.8268L337.4887 216.8268L337.4887 217.4268L337.4887 217.4268L338.7887 217.4268L338.7887 217.4268L338.7887 218.0268L338.7887 218.0268L339.4387 218.0268L339.4387 218.0268L339.4387 217.4268L339.4387 217.4268L340.7387 217.4268L340.7387 217.4268L340.7387 216.8268L340.7387 216.8268L339.4387 216.8268L339.4387 216.8268L339.4387 215.7268z" stroke="none" fill="#FFFFFF" fill-rule="evenodd" /><path id="39" transform="matrix(1 0 0 -1 0 595)" d="M337.4283 218.7449L340.3283 219.4949L340.3283 219.4949L340.4783 218.9949L340.4783 218.9949L337.6283 218.195L337.6283 218.195L337.4283 218.7449z" stroke="none" fill="#FFFFFF" fill-rule="evenodd" /><path id="40" transform="matrix(1 0 0 -1 0 595)" d="M328.5381 199.3014C 326.1273 199.2943 324.1659 201.2448 324.1659 203.6497C 324.1659 206.0812 326.1273 208.0318 328.5456 208.0318C 330.9636 208.0318 332.925 206.0812 332.925 203.6497C 332.925 201.2448 330.9636 199.2943 328.5381 199.3014M342.5881 200.5014C 341.7648 199.7484 340.69 199.2676 339.5078 199.2676C 337.0897 199.2676 335.1014 201.2448 335.1014 203.6764C 335.1014 206.0812 337.0897 208.0585 339.5078 208.0585C 340.69 208.0585 341.7379 207.6043 342.5171 206.8561C 343.4843 207.9516 343.4843 207.9516 343.4843 207.9516C 342.4365 208.9135 341.0393 209.5014 339.5078 209.5014C 336.9822 209.5014 334.8596 207.9516 334.0266 205.7338C 333.1937 207.9516 331.0442 209.5014 328.5456 209.5014C 325.3212 209.5014 322.6881 206.9095 322.6881 203.6764C 322.6881 200.47 325.3212 197.8514 328.5456 197.8514C 331.0442 197.8514 333.1937 199.4279 334.0266 201.6457C 334.8596 199.4279 336.9822 197.8514 339.5078 197.8514C 341.0662 197.8514 342.4902 198.4659 343.5381 199.5014L343.5381 199.5014L342.5881 200.5014z" stroke="none" fill="#FFFFFF" fill-rule="evenodd" /><path id="41" transform="matrix(1 0 0 -1 0 595)" d="M315.9999 203.3501C 313.3785 200.4925 309.8963 200.0091 309.8963 200.0091C 309.8963 200.0091 310.0035 203.3126 313.0303 206.1864C 316.0569 209.0334 318.9499 209.7585 318.9499 209.7585C 318.9499 209.7585 318.5481 206.2401 315.9999 203.3501M308.7178 199.9822C 308.7178 199.9822 305.8517 203.2857 305.6106 206.2133C 305.2624 210.1883 308.1285 213.7067 308.1285 213.7067C 307.941 208.2276 309.7624 205.8104 309.7624 205.8104C 309.7624 205.8104 310.191 205.1658 309.8963 203.2857C 309.6017 201.4325 308.7178 199.9822 308.6999 200.0001M309.3499 212.4501C 309.6285 216.0433 311.7982 218.7292 311.7982 218.7292C 311.7982 218.7292 313.8874 216.1508 313.4587 212.0415C 313.0569 208.0128 310.941 205.6761 310.941 205.6761C 310.941 205.6761 309.0124 208.8722 309.3499 212.4501M310.8499 221.2001C 310.6732 221.2001 310.5392 221.2001 310.3785 221.1732C 310.3785 221.2001 310.3785 221.2001 310.3785 221.2001C 302.4499 221.2001 302.4499 221.2001 302.4499 221.2001C 302.4499 197.3501 302.4499 197.3501 302.4499 197.3501C 310.3785 197.3501 310.3785 197.3501 310.3785 197.3501C 310.5124 197.3501 310.6464 197.3501 310.7803 197.3501C 317.3428 197.3501 322.6999 202.7754 322.6999 209.3288C 322.7 215.9091 317.3695 221.1732 310.8499 221.2001" stroke="none" fill="#FFFFFF" fill-rule="evenodd" /><path id="42" transform="matrix(1 0 0 -1 0 595)" d="M643.6097 531.2775C 643.5366 531.2986 643.5366 531.2986 643.5366 531.2986C 643.5366 524.7811 643.5366 524.7811 643.5366 524.7811C 642.3098 524.7275 642.3098 524.7275 642.3098 524.7275C 642.3098 531.2986 642.3098 531.2986 642.3098 531.2986C 642.3098 531.4059 642.3098 531.4059 642.3098 531.4059C 642.3098 532.4789 642.3098 532.4789 642.3098 532.4789C 642.9498 535.0001 645.2166 536.8774 647.9098 536.8774C 647.9098 535.4025 647.9098 535.4025 647.9098 535.4025C 645.6431 535.3485 643.8032 533.5784 643.6097 531.2775" stroke="none" fill="#FFFFFF" fill-rule="evenodd" /><path id="43" transform="matrix(1 0 0 -1 0 595)" d="M645.3431 540.7845C 645.3431 545.7346 645.3431 545.7346 645.3431 545.7346C 645.9015 545.7346 645.9015 545.7346 645.9015 545.7346C 645.9015 540.7601 645.9015 540.7601 645.9015 540.7601C 645.9813 539.9576 646.6191 539.3159 647.4432 539.3159C 647.4432 538.8345 647.4432 538.8345 647.4432 538.8345C 647.4167 538.8345 647.3901 538.8345 647.3635 538.8345C 646.2737 538.8345 645.3698 539.6902 645.3431 540.7845" stroke="none" fill="#FFFFFF" fill-rule="evenodd" /><path id="44" transform="matrix(1 0 0 -1 0 595)" d="M643.3646 540.6844C 643.2867 539.6635 642.4563 538.8345 641.3926 538.8345C 641.3664 538.8345 641.3405 538.8345 641.3146 538.8345C 641.3146 539.3159 641.3146 539.3159 641.3146 539.3159C 642.0931 539.3159 642.7416 539.9576 642.7938 540.7601C 642.7938 545.7346 642.7938 545.7346 642.7938 545.7346C 643.3646 545.7346 643.3646 545.7346 643.3646 545.7346C 643.3646 540.7867 643.3646 540.7867 643.3646 540.7867C 643.3646 540.7601 643.3646 540.7601 643.3646 540.7845L643.3646 540.7845L643.3646 540.6844z" stroke="none" fill="#FFFFFF" fill-rule="evenodd" /><path id="45" transform="matrix(1 0 0 -1 0 595)" d="M631.5312 529.9537C 631.2698 531.6801 632.0464 533.483 633.6531 534.3978C 635.2597 535.3395 637.1879 535.1243 638.5312 534.0037L638.5312 534.0037L631.5312 529.9537zM641.5812 531.6036C 640.1335 531.3842 640.1335 531.3842 640.1335 531.3842C 640.4548 529.6081 639.6782 527.7247 638.0181 526.783C 635.9293 525.5721 633.2783 526.2716 632.0732 528.3704C 640.3476 533.187 640.3476 533.187 640.3476 533.187C 640.9101 533.5096 640.9101 533.5096 640.9101 533.5096C 640.8832 533.5096 640.8832 533.5367 640.8832 533.5367C 639.2766 536.3621 635.7151 537.3036 632.9302 535.6893C 630.1183 534.075 629.1811 530.4962 630.788 527.6708C 632.3946 524.8724 635.9561 523.9037 638.741 525.5451C 640.9368 526.8096 641.9813 529.2584 641.5812 531.6036" stroke="none" fill="#FFFFFF" fill-rule="evenodd" /><path id="46" transform="matrix(1 0 0 -1 0 595)" d="M638.189 540.7271C 638.1802 540.7676 638.1802 540.7676 638.1802 540.7676C 638.1802 540.7676 638.1802 540.7676 638.1802 540.7946C 638.1802 541.684 638.1802 541.684 638.1802 541.684C 635.6978 541.684 635.6978 541.684 635.6978 541.684C 635.6978 540.7946 635.6978 540.7946 635.6978 540.7946C 635.6978 540.7676 635.6978 540.7676 635.6978 540.7676C 635.6978 540.7136 635.6978 540.7136 635.6978 540.7136C 635.6177 539.6624 634.7368 538.827 633.669 538.827C 633.6423 538.827 633.6157 538.827 633.589 538.827C 633.589 539.3121 633.589 539.3121 633.589 539.3121C 634.3897 539.3121 635.0572 539.9589 635.1105 540.7676C 635.1105 541.684 635.1105 541.684 635.1105 541.684C 635.1105 542.277 635.1105 542.277 635.1105 542.277C 635.6978 542.277 635.6978 542.277 635.6978 542.277C 638.1802 542.277 638.1802 542.277 638.1802 542.277C 638.3671 542.277 638.3671 542.277 638.3671 542.277C 638.7676 542.277 638.7676 542.277 638.7676 542.277C 638.7676 540.7676 638.7676 540.7676 638.7676 540.7676C 638.8209 539.9589 639.4883 539.3121 640.2891 539.3121C 640.2891 538.827 640.2891 538.827 640.2891 538.827C 640.2623 538.827 640.2356 538.827 640.2089 538.827C 639.1411 538.827 638.2603 539.6624 638.189 540.7271" stroke="none" fill="#FFFFFF" fill-rule="evenodd" /><path id="47" transform="matrix(1 0 0 -1 0 595)" d="M639.5786 542.8636L634.3286 542.8636L634.3286 542.8636L634.3286 542.5136L634.3286 542.5136L633.7786 542.5136L633.7786 542.5136L633.7786 542.8636L633.7786 542.8636L633.7786 543.4136L633.7786 543.4136L634.3286 543.4136L634.3286 543.4136L639.5786 543.4136L639.5786 543.4136L640.1285 543.4136L640.1285 543.4136L640.1285 542.8636L640.1285 542.8636L640.1285 542.5136L640.1285 542.5136L639.5786 542.5136L639.5786 542.5136L639.5786 542.8636z" stroke="none" fill="#FFFFFF" fill-rule="evenodd" /><path id="48" transform="matrix(1 0 0 -1 0 595)" d="M637.2182 544.3923L638.9682 544.3923L638.9682 544.3923L638.9682 543.8422L638.9682 543.8422L634.9682 543.8422L634.9682 543.8422L634.9682 544.3923L634.9682 544.3923L636.6681 544.3923L636.6681 544.3923L636.6681 544.9924L636.6681 544.9924L633.9682 544.9924L633.9682 544.9924L633.9682 545.5422L633.9682 545.5422L636.6681 545.5422L636.6681 545.5422L636.6681 546.4924L636.6681 546.4924L637.2182 546.4924L637.2182 546.4924L637.2182 545.5422L637.2182 545.5422L639.9183 545.5422L639.9183 545.5422L639.9183 544.9924L639.9183 544.9924L637.2182 544.9924L637.2182 544.9924L637.2182 544.3923z" stroke="none" fill="#FFFFFF" fill-rule="evenodd" /><path id="49" transform="matrix(1 0 0 -1 0 595)" d="M628.7359 538.7742L628.1858 538.7742L628.1858 538.7742L628.1858 539.3242L628.1858 539.3242L628.1858 542.8242L628.1858 542.8242L628.6858 542.8242L628.6858 542.8242L629.3859 543.2242L629.3859 543.2242L629.6359 542.7242L629.6359 542.7242L628.7359 542.1741L628.7359 542.1741L628.7359 541.0742L628.7359 541.0742L629.936 541.0742L629.936 541.0742L629.936 540.5242L629.936 540.5242L628.7359 540.5242L628.7359 540.5242L628.7359 539.3242L628.7359 539.3242L631.8359 539.3242L631.8359 539.3242L631.8359 540.5242L631.8359 540.5242L630.6858 540.5242L630.6858 540.5242L630.6858 541.0742L630.6858 541.0742L631.8359 541.0742L631.8359 541.0742L631.8359 542.2742L631.8359 542.2742L630.6858 542.2742L630.6858 542.2742L630.6858 542.8242L630.6858 542.8242L631.8359 542.8242L631.8359 542.8242L632.436 542.8242L632.436 542.8242L632.436 538.7742L632.436 538.7742L631.8359 538.7742L631.8359 538.7742L628.7359 538.7742z" stroke="none" fill="#FFFFFF" fill-rule="evenodd" /><path id="50" transform="matrix(1 0 0 -1 0 595)" d="M631.2665 543.7847L631.9166 544.8347L631.9166 544.8347L632.4166 544.5347L632.4166 544.5347L631.7166 543.4847L631.7166 543.4847L631.2665 543.7847z" stroke="none" fill="#FFFFFF" fill-rule="evenodd" /><path id="51" transform="matrix(1 0 0 -1 0 595)" d="M630.7104 543.9741L630.2104 543.674L630.2104 543.674L629.5604 544.7241L629.5604 544.7241L630.0104 545.024L630.0104 545.024L630.7104 543.9741z" stroke="none" fill="#FFFFFF" fill-rule="evenodd" /><path id="52" transform="matrix(1 0 0 -1 0 595)" d="M628.3754 544.5347L628.8754 544.8347L628.8754 544.8347L629.5254 543.7847L629.5254 543.7847L629.0754 543.4847L629.0754 543.4847L628.3754 544.5347z" stroke="none" fill="#FFFFFF" fill-rule="evenodd" /><path id="53" transform="matrix(1 0 0 -1 0 595)" d="M628.1858 545.6923L632.0359 546.4924L632.0359 546.4924L632.1858 545.9924L632.1858 545.9924L628.3359 545.1422L628.3359 545.1422L628.1858 545.6923z" stroke="none" fill="#FFFFFF" fill-rule="evenodd" /><path id="54" transform="matrix(1 0 0 -1 0 595)" d="M626.6888 542.6765L626.7389 542.7266L626.7389 542.7266L627.8389 540.8266L627.8389 540.8266L627.3389 540.5266L627.3389 540.5266L626.6888 541.7766L626.6888 541.7766L626.6888 538.7766L626.6888 538.7766L626.0389 538.7766L626.0389 538.7766L626.0389 542.1765L626.0389 542.1765L624.9889 540.3266L624.9889 540.3266L624.4889 540.6765L624.4889 540.6765L626.0389 543.3766L626.0389 543.3766L626.0389 543.7766L626.0389 543.7766L624.7389 543.7766L624.7389 543.7766L624.7389 544.3766L624.7389 544.3766L626.0389 544.3766L626.0389 544.3766L626.0389 544.9766L626.0389 544.9766L626.6888 544.9766L626.6888 544.9766L626.6888 544.3766L626.6888 544.3766L627.9889 544.3766L627.9889 544.3766L627.9889 543.7766L627.9889 543.7766L626.6888 543.7766L626.6888 543.7766L626.6888 542.6765z" stroke="none" fill="#FFFFFF" fill-rule="evenodd" /><path id="55" transform="matrix(1 0 0 -1 0 595)" d="M624.6785 545.6949L627.5785 546.4449L627.5785 546.4449L627.7286 545.9449L627.7286 545.9449L624.8785 545.1448L624.8785 545.1448L624.6785 545.6949z" stroke="none" fill="#FFFFFF" fill-rule="evenodd" /><path id="56" transform="matrix(1 0 0 -1 0 595)" d="M615.7883 526.2512C 613.3776 526.2441 611.4161 528.1946 611.4161 530.5995C 611.4161 533.0311 613.3776 534.9816 615.7958 534.9816C 618.2137 534.9816 620.1752 533.0311 620.1752 530.5995C 620.1752 528.1946 618.2137 526.2441 615.7883 526.2512M629.8383 527.4512C 629.0151 526.6984 627.9402 526.2175 626.758 526.2175C 624.3398 526.2175 622.3515 528.1946 622.3515 530.6262C 622.3515 533.0311 624.3398 535.0084 626.758 535.0084C 627.9402 535.0084 628.9881 534.5541 629.7673 533.8059C 630.7347 534.9014 630.7347 534.9014 630.7347 534.9014C 629.6866 535.8633 628.2895 536.4512 626.758 536.4512C 624.2325 536.4512 622.1096 534.9014 621.2767 532.6836C 620.4438 534.9014 618.2945 536.4512 615.7958 536.4512C 612.5713 536.4512 609.9383 533.8593 609.9383 530.6262C 609.9383 527.4199 612.5713 524.8011 615.7958 524.8011C 618.2945 524.8011 620.4438 526.3777 621.2767 528.5956C 622.1096 526.3777 624.2325 524.8011 626.758 524.8011C 628.3163 524.8011 629.7403 525.4158 630.7883 526.4512L630.7883 526.4512L629.8383 527.4512z" stroke="none" fill="#FFFFFF" fill-rule="evenodd" /><path id="57" transform="matrix(1 0 0 -1 0 595)" d="M603.2501 530.2999C 600.6287 527.4424 597.1464 526.9589 597.1464 526.9589C 597.1464 526.9589 597.2537 530.2625 600.2806 533.1362C 603.3072 535.9833 606.2001 536.7084 606.2001 536.7084C 606.2001 536.7084 605.7983 533.1899 603.2501 530.2999M595.9681 526.9322C 595.9681 526.9322 593.1017 530.2357 592.8607 533.1631C 592.5126 537.1381 595.3787 540.6564 595.3787 540.6564C 595.1912 535.1774 597.0126 532.7603 597.0126 532.7603C 597.0126 532.7603 597.4412 532.1156 597.1464 530.2357C 596.8517 528.3824 595.9681 526.9322 595.9501 526.95M596.6 539.4C 596.8787 542.9932 599.0482 545.679 599.0482 545.679C 599.0482 545.679 601.1376 543.1006 600.709 538.9915C 600.3072 534.9626 598.1912 532.6259 598.1912 532.6259C 598.1912 532.6259 596.2626 535.8221 596.6 539.4M598.1 548.1498C 597.9233 548.1498 597.7894 548.1498 597.6287 548.123C 597.6287 548.1498 597.6287 548.1498 597.6287 548.1498C 589.7001 548.1498 589.7001 548.1498 589.7001 548.1498C 589.7001 524.2999 589.7001 524.2999 589.7001 524.2999C 597.6287 524.2999 597.6287 524.2999 597.6287 524.2999C 597.7626 524.2999 597.8965 524.2999 598.0306 524.2999C 604.5931 524.2999 609.9501 529.7253 609.9501 536.2786C 609.9501 542.8589 604.6196 548.123 598.1 548.1498" stroke="none" fill="#FFFFFF" fill-rule="evenodd" /><path id="58" transform="matrix(1 0 0 -1 0 595)" d="M306.2501 546.1L382.3001 546.1L382.3001 546.1L382.3001 549.65L382.3001 549.65L306.2501 549.65z" stroke="none" fill="#262626" fill-rule="evenodd" /><path id="59" transform="matrix(1 0 0 -1 0 595)" d="M382.3969 546.1L538.6968 546.1L538.6968 546.1L538.6969 549.65L538.6969 549.65L382.3969 549.65z" stroke="none" fill="#CC3A35" fill-rule="evenodd" /><path id="76" transform="matrix(1 0 0 -1 0 595)" d="M590.5001 546.1498L666.55 546.1498L666.55 546.1498L666.5501 549.6998L666.5501 549.6998L590.5001 549.6998z" stroke="none" fill="#262626" fill-rule="evenodd" /><path id="77" transform="matrix(1 0 0 -1 0 595)" d="M666.6467 546.1498L822.9467 546.1497L822.9467 546.1497L822.9467 549.6997L822.9467 549.6997L666.6467 549.6998z" stroke="none" fill="#CC3935" fill-rule="evenodd" /><path id="103" transform="matrix(1 0 0 -1 0 595)" d="M308.0501 506.9L536.2001 506.85" stroke="#A6A6A6" stroke-width="1" fill="none" /><path id="104" transform="matrix(1 0 0 -1 0 595)" d="M590.5002 506.8998L818.6503 506.8499" stroke="#A6A6A6" stroke-width="1" fill="none" /><path id="105" transform="matrix(1 0 0 -1 0 595)" d="M590.5 410.4999L818.65 410.4998L818.65 410.4998L818.6501 497.5999L818.6501 497.5999L590.5001 497.5999z" stroke="none" fill="#FFFFFF" fill-rule="evenodd" /><g transform="matrix(0.4793068 0 0 0.4785714 590.5 97.39999)"><g transform="matrix(1 0 0 1 0 0)"><image x="0" y="0" xlink:href="img_10.png" width="476" height="182" /></g></g><path id="252" transform="matrix(1 0 0 -1 0 595)" d="M590.5 328.5499L818.65 328.4999" stroke="#A6A6A6" stroke-width="1" fill="none" /><path id="338" transform="matrix(1 0 0 -1 0 595)" d="M590.5 237.2499L818.65 237.1999" stroke="#A6A6A6" stroke-width="1" fill="none" /><path id="352" transform="matrix(1 0 0 -1 0 595)" d="M662.2 226.2498L662.2499 203.1498" stroke="#A6A6A6" stroke-width="1" fill="none" /><path id="377" transform="matrix(1 0 0 -1 0 595)" d="M744.4 226.2498L744.45 203.1498" stroke="#A6A6A6" stroke-width="1" fill="none" /><path id="538" transform="matrix(1 0 0 -1 0 595)" d="M308.05 436.85L536.2001 436.8" stroke="#A6A6A6" stroke-width="1" fill="none" /><path id="539" transform="matrix(1 0 0 -1 0 595)" d="M363.15 391.2501C 363.15 376.9734 351.3266 365.1501 337.05 365.1501C 322.7734 365.1501 310.95 376.9735 310.95 391.2501C 310.95 405.5267 322.7734 417.35 337.05 417.35C 351.3266 417.35 363.15 405.5267 363.15 391.2501M361.15 391.2501C 361.15 404.6982 350.4981 415.35 337.05 415.35C 323.6019 415.35 312.95 404.6982 312.95 391.2501C 312.95 377.8019 323.6019 367.1501 337.05 367.1501C 350.498 367.1501 361.15 377.8019 361.15 391.2501" stroke="none" fill="#CC3935" fill-rule="nonzero" /><path id="540" transform="matrix(1 0 0 -1 0 595)" d="M449.45 391.25C 449.45 376.9734 437.6266 365.15 423.3499 365.15C 409.0734 365.15 397.25 376.9734 397.25 391.25C 397.25 405.5266 409.0734 417.35 423.35 417.35C 437.6266 417.35 449.45 405.5266 449.45 391.25M447.45 391.25C 447.45 404.6981 436.7981 415.35 423.35 415.35C 409.9019 415.35 399.25 404.6981 399.25 391.25C 399.25 377.8019 409.9019 367.15 423.3499 367.15C 436.7981 367.15 447.45 377.8019 447.45 391.25" stroke="none" fill="#CC3935" fill-rule="nonzero" /><path id="541" transform="matrix(1 0 0 -1 0 595)" d="M535.7 391.25C 535.7 376.9734 523.8765 365.15 509.6 365.15C 495.3233 365.15 483.5 376.9734 483.5 391.25C 483.5 405.5266 495.3234 417.3499 509.6 417.3499C 523.8765 417.3499 535.7 405.5266 535.7 391.25M533.7 391.25C 533.7 404.6981 523.048 415.3499 509.6 415.3499C 496.1519 415.3499 485.5 404.6981 485.5 391.25C 485.5 377.8018 496.1519 367.15 509.6 367.15C 523.048 367.15 533.7 377.8018 533.7 391.25" stroke="none" fill="#CC3935" fill-rule="nonzero" /><path id="542" transform="matrix(1 0 0 -1 0 595)" d="M413.85 400.35L432.8 400.35C 433.5409 400.35 434.15 399.7418 434.15 399L434.15 399L434.15 383.45C 434.15 382.7083 433.5409 382.1 432.8 382.1L432.8 382.1L413.8499 382.1C 413.1091 382.1 412.5 382.7083 412.5 383.45L412.5 383.45L412.5 399C 412.5 399.7418 413.1091 400.35 413.85 400.35M413.85 399.7C 413.4899 399.691 413.1853 399.3868 413.2 399L413.2 399L413.2 396.3L413.2 396.3L415.05 396.3L415.05 396.3L416 399.7L416 399.7L413.85 399.7zM416.65 399.7L415.75 396.3L415.75 396.3L418.8 396.3L418.8 396.3L419.7 399.7L419.7 399.7L416.65 399.7zM420.4 399.7L419.5 396.3L419.5 396.3L422.55 396.3L422.55 396.3L423.4 399.7L423.4 399.7L420.4 399.7zM424.1 399.7L423.2 396.3L423.2 396.3L426.25 396.3L426.25 396.3L427.15 399.7L427.15 399.7L424.1 399.7zM427.85 399.7L426.95 396.3L426.95 396.3L429.95 396.3L429.95 396.3L430.9 399.7L430.9 399.7L427.85 399.7zM431.55 399.7L430.65 396.3L430.65 396.3L433.5 396.3L433.5 396.3L433.5 399C 433.4901 399.3868 433.1855 399.691 432.8 399.7L432.8 399.7L431.55 399.7zM413.2 395.65L413.2 383.45C 413.1853 383.0885 413.4898 382.7844 413.8499 382.8L413.8499 382.8L432.8 382.8C 433.1855 382.7844 433.4901 383.0885 433.5 383.45L433.5 383.45L433.5 395.65L433.5 395.65L413.2 395.65zM421.15 392.55C 421.2314 392.5961 421.3329 392.5961 421.45 392.55L421.45 392.55L426.8499 389.85C 426.9658 389.7827 427.0419 389.6812 427.0419 389.5544C 427.0419 389.4277 426.9658 389.301 426.8499 389.25L426.8499 389.25L421.45 386.55C 421.409 386.5128 421.3582 386.5128 421.3074 386.5128C 421.2314 386.5128 421.1806 386.5128 421.1299 386.5635C 421.0284 386.6143 420.9522 386.7157 420.95 386.85L420.95 386.85L420.95 392.25C 420.9522 392.368 421.0284 392.4694 421.15 392.55M421.65 391.7L421.65 387.4L421.65 387.4L425.95 389.55L425.95 389.55L421.65 391.7z" stroke="none" fill="#CC3935" fill-rule="evenodd" /><path id="543" transform="matrix(1 0 0 -1 0 595)" d="M509.6 402.05C 509.8375 402.05 510.0498 401.8382 510.05 401.6L510.05 401.6L510.05 399.7C 514.355 399.4787 517.8228 396.0189 518.0499 391.7L518.0499 391.7L519.95 391.7C 520.1877 391.7178 520.4 391.5118 520.4 391.247C 520.4 390.9881 520.1877 390.7763 519.95 390.8L519.95 390.8L518.0499 390.8C 517.8228 386.481 514.355 383.0213 510.05 382.8L510.05 382.8L510.05 380.9C 510.0498 380.6618 509.8374 380.45 509.5779 380.45C 509.3125 380.45 509.1061 380.6618 509.1 380.9L509.1 380.9L509.1 382.8C 504.795 383.0213 501.3271 386.481 501.1 390.8L501.1 390.8L499.2 390.8C 498.9623 390.7764 498.75 390.9882 498.75 391.247C 498.75 391.5118 498.9623 391.7178 499.2 391.7L499.2 391.7L501.1 391.7C 501.1739 393.1829 501.628 394.595 502.4242 395.8307C 503.2794 397.1604 504.4883 398.2195 505.9097 398.9021C 506.1457 399.0139 506.4286 398.9138 506.5407 398.6785C 506.6528 398.4431 506.5525 398.1667 506.3167 398.0489C 503.7099 396.8073 502.0232 394.1361 502.0232 391.247C 502.0232 387.093 505.4084 383.7157 509.5779 383.7157C 513.7415 383.7157 517.1267 387.093 517.1267 391.247C 517.1267 395.407 513.7415 398.7844 509.5779 398.7844C 509.3125 398.7844 509.1061 398.9962 509.1 399.25L509.1 399.25L509.1 401.6C 509.1061 401.8382 509.3125 402.05 509.6 402.05M509.6 393.65C 510.8943 393.6286 511.9618 392.5637 511.9618 391.2458C 511.9618 389.9337 510.8943 388.8687 509.5793 388.8687C 508.2581 388.8687 507.1907 389.9337 507.1907 391.2458C 507.1907 392.5637 508.2581 393.6286 509.6 393.65M509.6 392.7C 508.783 392.6873 508.1343 392.0401 508.1343 391.2458C 508.1343 390.4514 508.783 389.8102 509.5793 389.8102C 510.3754 389.8102 511.0182 390.4514 511.0182 391.2458C 511.0182 392.0401 510.3754 392.6873 509.6 392.7" stroke="none" fill="#CC3935" fill-rule="evenodd" /><path id="544" transform="matrix(1 0 0 -1 0 595)" d="M336.5 402.0001L336.75 402.0001L336.75 402.0001L336.85 402.0001L336.85 402.0001L337 402.0001L337 402.0001L337.2399 402.0001L337.2399 402.0001L337.25 402.0001C 342.9391 401.7944 347.4984 397.1144 347.4984 391.3837C 347.4984 391.1623 347.3528 391.0168 347.15 391.0001L347.15 391.0001L337.25 391.0001L337.25 391.0001L337.25 381.1501C 337.2399 380.9131 337.0943 380.7644 336.8499 380.7501L336.8499 380.7501L336.75 380.7501L336.75 380.7501L336.5085 380.7644L336.5085 380.7644L336.5 380.7501C 333.5544 380.8751 330.9138 382.1788 329.0489 384.2072C 329.0014 384.2293 328.9603 384.2641 328.9254 384.3178C 328.9064 384.3401 328.8937 384.3622 328.8842 384.3874C 327.2443 386.2575 326.25 388.7068 326.25 391.3837C 326.25 397.1144 330.8094 401.7944 336.4958 401.9937L336.4958 401.9937L336.5 402.0001zM335.55 401.2001C 333.4183 400.8957 331.4964 399.9274 330.0178 398.5035C 330.8568 397.9656 331.756 397.5353 332.6901 397.2126C 333.3898 398.6807 334.3555 400.0287 335.55 401.2001M338.2 401.2001C 339.3929 400.0286 340.3586 398.6807 341.0584 397.2125C 341.9924 397.5353 342.8916 397.9655 343.7307 398.5034C 342.252 399.9274 340.3301 400.8956 338.2 401.2001M336.5 401.05C 335.1882 399.9022 334.137 398.5194 333.393 396.9909C 334.4062 396.7062 335.451 396.5448 336.5 396.5001L336.5 396.5001L336.5 401.05zM337.25 401.05L337.25 396.5001C 338.2974 396.5448 339.3423 396.7062 340.3555 396.9909C 339.6115 398.5194 338.5602 399.9022 337.25 401.05M344.25 397.95C 343.3475 397.3643 342.3755 396.8833 341.359 396.5289C 341.9734 395.029 342.3185 393.4122 342.3499 391.7501L342.3499 391.7501L346.75 391.7501C 346.6721 394.1304 345.7411 396.2979 344.25 397.95M329.5 397.9501C 328.0041 396.2853 327.0764 394.1241 327 391.7501L327 391.7501L331.4 391.7501C 331.4267 393.4122 331.7751 395.0259 332.3893 396.5289C 331.3729 396.8801 330.3978 397.3548 329.5 397.9501M333.1 396.3001C 332.4937 394.8771 332.1613 393.3394 332.1 391.7501L332.1 391.7501L336.5 391.7501L336.5 391.7501L336.5 395.8C 335.3369 395.8139 334.1909 395.9878 333.1 396.3001M340.65 396.3C 339.5576 395.991 338.4114 395.8138 337.25 395.8L337.25 395.8L337.25 391.7501L337.25 391.7501L341.65 391.7501C 341.587 393.3394 341.2546 394.8803 340.65 396.3M327 391.0001C 327.0732 388.7416 327.9248 386.6628 329.2959 385.0331C 330.2364 385.6596 331.2336 386.1659 332.269 386.5424C 331.7274 387.9569 331.4267 389.4662 331.4 391.0001L331.4 391.0001L327 391.0001zM332.1 391.0001C 332.1581 389.5422 332.4463 388.1119 332.9624 386.7734C 334.1085 387.1215 335.2959 387.3177 336.5 387.35L336.5 387.35L336.5 391.0001L336.5 391.0001L332.1 391.0001zM343.15 389.9C 345.7758 389.8823 347.9 387.7585 347.9 385.1222C 347.9 382.4857 345.7409 380.4 343.1005 380.4C 341.1915 380.4 339.4724 381.5426 338.7 383.2001L338.7 383.2001L338.7 381.85L338.7 381.85L337.95 381.85L337.95 381.85L337.95 384.8L337.95 384.8L338.6334 384.793C 338.6714 384.7994 338.7094 384.7994 338.75 384.8L338.75 384.8L340.9 384.8L340.9 384.8L340.9 384.05L340.9 384.05L339.15 384.05C 339.675 382.3749 341.2801 381.1312 343.1005 381.1312C 345.3356 381.1312 347.1307 382.9256 347.1307 385.1602C 347.1307 387.3945 345.3356 389.1859 343.1005 389.1859C 341.929 389.1859 340.8306 388.7113 340.0992 387.8314C 339.9503 387.6858 339.7321 387.6509 339.5863 387.7966C 339.4374 387.9422 339.4027 388.1637 339.5483 388.3093C 340.4283 389.3347 341.7455 389.8823 343.15 389.9M336.5 386.6001C 335.3907 386.5867 334.2953 386.4159 333.2411 386.1026C 333.9882 384.4445 335.0932 382.9478 336.5 381.7001L336.5 381.7001L336.5 386.6001zM332.55 385.85C 331.5818 385.5299 330.6605 385.0678 329.7898 384.4887C 331.2969 382.9415 333.3074 381.8845 335.5555 381.5839C 334.2668 382.8211 333.2505 384.2799 332.55 385.85" stroke="none" fill="#CC3935" fill-rule="evenodd" /><path id="618" transform="matrix(1 0 0 -1 0 595)" d="M308.05 297.4L536.2 297.35" stroke="#A6A6A6" stroke-width="1" fill="none" /><path id="886" transform="matrix(1 0 0 -1 0 595)" d="M308.0499 140.8001L536.1999 140.7501" stroke="#A6A6A6" stroke-width="1" fill="none" /><path id="887" transform="matrix(1 0 0 -1 0 595)" d="M326.2499 126.0001C 327.2662 126.0001 328.0923 125.1764 328.0923 124.1675C 328.0923 123.1547 327.2662 122.331 326.2503 122.331C 325.7877 122.331 325.3728 122.5083 325.0499 122.8001L325.0499 122.8001L319.9999 119.9501C 319.9137 119.9112 319.811 119.8836 319.7122 119.8836C 319.4947 119.8836 319.2893 119.9979 319.1746 120.1989C 319.0086 120.4905 319.1154 120.8649 319.3998 121.0501L319.3998 121.0501L324.4499 123.8501C 324.424 123.9547 324.4122 124.0572 324.4122 124.1675C 324.4122 125.1764 325.2383 126.0001 326.2499 126.0001M326.2499 124.8001C 325.9143 124.7784 325.6376 124.5025 325.6376 124.1675C 325.6376 123.8286 325.9143 123.5527 326.2503 123.5527C 326.5902 123.5527 326.8629 123.8286 326.8629 124.1675C 326.8629 124.5025 326.5902 124.7784 326.2499 124.8001M329.4499 123.0501C 329.6024 123.1079 329.7694 123.0882 329.8998 123.0001L329.8998 123.0001L334.8998 120.0501C 334.9627 120.1365 335.0456 120.1995 335.1405 120.2508C 336.0179 120.7592 337.1482 120.4557 337.6541 119.5808C 338.16 118.7059 337.8596 117.5788 336.9782 117.0744C 336.6977 116.9128 336.3814 116.83 336.0653 116.83C 335.9033 116.83 335.7452 116.8498 335.5832 116.8931C 335.1089 117.0192 334.7137 117.3227 334.4686 117.7483C 334.2354 118.1463 334.1801 118.5956 334.2499 119.0001L334.2499 119.0001L329.2999 121.9501C 328.9987 122.1227 328.9038 122.4971 329.0778 122.7887C 329.1628 122.9345 329.2991 123.0311 329.4499 123.0501M316.4499 120.5001C 317.4566 120.5 318.2785 119.6764 318.2785 118.6636C 318.2785 117.8676 317.7649 117.1976 317.0499 116.9501L317.0499 116.9501L317.0499 110.1001C 317.0536 109.7654 316.781 109.4934 316.4412 109.4934C 316.1014 109.4934 315.8286 109.7654 315.8498 110.1001L315.8498 110.1001L315.8498 116.9501C 315.1175 117.1976 314.5999 117.8676 314.5999 118.6636C 314.5999 119.6764 315.4257 120.5 316.4499 120.5001M326.2499 120.5001C 326.5897 120.5 326.8624 120.2241 326.8498 119.9001L326.8498 119.9001L326.8498 118.0001C 328.3364 117.8519 329.6366 117.111 330.5499 116.0001L330.5499 116.0001L332.5999 117.2001C 332.873 117.375 333.2485 117.2765 333.4184 116.9849C 333.5882 116.6894 333.4894 116.315 333.1999 116.1501L333.1999 116.1501L331.1999 115.0001C 331.557 114.254 331.7705 113.4265 331.7705 112.5517C 331.7705 111.862 331.6362 111.204 331.3998 110.6001L331.3998 110.6001L333.1999 109.5501C 333.4894 109.3952 333.5882 109.0209 333.4184 108.7292C 333.3076 108.5322 333.0983 108.4219 332.8888 108.4219C 332.7822 108.4219 332.6794 108.4495 332.5999 108.5001L332.5999 108.5001L330.8498 109.5001C 329.9606 108.1854 328.5222 107.2673 326.8498 107.1001L326.8498 107.1001L326.8498 105.2001C 326.8624 104.8753 326.5897 104.6034 326.2499 104.6034C 325.914 104.6034 325.6374 104.8753 325.6499 105.2001L325.6499 105.2001L325.6499 107.1001C 324.0211 107.2673 322.559 108.15 321.6499 109.5001L321.6499 109.5001L319.8998 108.5001C 319.6267 108.3352 319.2513 108.4376 319.0814 108.7292C 318.9115 109.0209 319.0142 109.3952 319.2999 109.5501L319.2999 109.5501L321.4499 110.8001C 321.5828 110.8769 321.7686 110.8927 321.9499 110.8501L321.9499 110.8501L322.1499 110.7501C 322.3021 110.7114 322.4206 110.6089 322.4957 110.4789C 322.9462 109.6632 323.6497 109.0366 324.4676 108.6622C 324.0922 109.5607 323.8709 110.7311 323.7999 111.9501L323.7999 111.9501L321.3498 111.9501C 321.0099 111.9409 320.7332 112.2128 320.7332 112.5517C 320.7332 113.4147 320.9347 114.2422 321.2999 115.0001L321.2999 115.0001L319.2999 116.1501C 319.0142 116.315 318.9154 116.6894 319.0814 116.9849C 319.2513 117.2765 319.6267 117.375 319.8998 117.2001L319.8998 117.2001L321.9499 116.0501C 322.0886 116.1692 322.2151 116.3071 322.3495 116.4411C 323.2466 117.3356 324.3965 117.8794 325.6499 118.0001L325.6499 118.0001L325.6499 119.9001C 325.6374 120.2241 325.914 120.5 326.2499 120.5001M316.4499 119.2501C 316.1014 119.2744 315.8286 119.0025 315.8286 118.6636C 315.8286 118.3286 316.1014 118.0528 316.4412 118.0528C 316.781 118.0528 317.0536 118.3286 317.0536 118.6636C 317.0536 119.0025 316.781 119.2744 316.4499 119.2501M336.1999 119.2501C 336.0673 119.2941 335.8993 119.2774 335.7531 119.1946C 335.4606 119.0252 335.3617 118.6508 335.5318 118.3591C 335.6108 118.2173 335.7452 118.1148 335.9033 118.0714C 336.0573 118.0321 336.2234 118.0517 336.3657 118.1345C 336.6581 118.3 336.7609 118.6784 336.591 118.97C 336.508 119.1158 336.3716 119.2133 336.1999 119.2501M326.2499 116.8501C 324.0922 116.8312 322.3021 115.2313 321.9999 113.1501L321.9999 113.1501L323.7999 113.1501C 323.8472 113.8521 323.9262 114.522 324.0567 115.1249C 324.1318 115.4559 324.4597 115.6648 324.7877 115.5939C 325.1197 115.5229 325.3292 115.1958 325.258 114.8688C 325.1434 114.3447 325.0683 113.7615 325.0499 113.1501L325.0499 113.1501L327.4499 113.1501C 327.3445 115.5465 326.5779 116.8312 326.2499 116.8501M328.0499 116.4501C 328.4115 115.5426 328.6328 114.3722 328.6999 113.1501L328.6999 113.1501L329.2999 113.1501L329.2999 113.1501L329.2999 111.9501L329.2999 111.9501L328.6999 111.9501C 328.6328 110.7272 328.4115 109.5568 328.0321 108.6622C 329.5101 109.3361 330.5415 110.8257 330.5415 112.5517C 330.5415 114.2777 329.5101 115.7633 328.0499 116.4501M336.0499 115.6001C 336.4024 115.6068 336.675 115.3348 336.6999 115.0001L336.6999 115.0001L336.6999 108.1501C 337.3862 107.9059 337.8998 107.232 337.8998 106.4359C 337.8998 105.427 337.0741 104.6033 336.0625 104.6033C 335.0471 104.6033 334.2213 105.427 334.2213 106.4359C 334.2213 107.232 334.7349 107.9059 335.4499 108.1501L335.4499 108.1501L335.4499 115.0001C 335.45 115.3348 335.7228 115.6068 336.0499 115.6001M325.0499 111.9501C 325.1553 109.5528 325.9218 108.2721 326.2499 108.2721C 326.5779 108.2721 327.3445 109.5528 327.4499 111.9501L327.4499 111.9501L325.0499 111.9501zM316.8998 108.2001C 317.3723 108.0865 317.7803 107.793 318.0331 107.3556C 318.2622 106.9577 318.3214 106.5085 318.2499 106.1001L318.2499 106.1001L323.1999 103.1501C 323.4972 102.9781 323.5959 102.6038 323.4221 102.3123C 323.3074 102.1192 323.1021 102.0128 322.8927 102.0128C 322.786 102.0128 322.6793 102.0404 322.5999 102.1001L322.5999 102.1001L317.5999 105.0501C 317.5353 104.9679 317.4523 104.9049 317.3574 104.8497C 317.077 104.6882 316.7609 104.6054 316.4449 104.6054C 316.2829 104.6054 316.1247 104.6251 315.9628 104.6685C 315.4886 104.7946 315.0936 105.098 314.8487 105.5235C 314.3429 106.3982 314.6432 107.5211 315.5203 108.0255C 315.9608 108.2776 316.4626 108.3289 316.8998 108.2001M316.4499 107.0501C 316.3342 107.0483 316.2315 107.0246 316.1327 106.9695C 315.8404 106.8001 315.7416 106.4258 315.9115 106.1342C 315.9905 105.9924 316.1247 105.8899 316.2829 105.8466C 316.4369 105.8072 316.6029 105.8269 316.7451 105.9096C 317.0414 106.0751 317.1402 106.4533 316.9703 106.7449C 316.8596 106.938 316.6503 107.0483 316.4499 107.0501M336.0499 107.0501C 335.7228 107.0468 335.45 106.7749 335.45 106.4359C 335.45 106.1009 335.7228 105.825 336.0625 105.825C 336.3983 105.825 336.675 106.1009 336.675 106.4359C 336.675 106.7749 336.3983 107.0468 336.0499 107.0501M332.9499 105.2001C 333.1089 105.1504 333.2433 105.0509 333.3243 104.9031C 333.4943 104.6077 333.3875 104.2373 333.0999 104.0501L333.0999 104.0501L328.0499 101.2501C 328.0749 101.1448 328.0907 101.0423 328.0907 100.9359C 328.0907 99.92344 327.2646 99.10008 326.2487 99.10008C 325.2368 99.10008 324.4106 99.92345 324.4106 100.9359C 324.4106 101.9445 325.2368 102.7679 326.2487 102.7679C 326.7112 102.7679 327.1302 102.5906 327.4499 102.3001L327.4499 102.3001L332.4999 105.1501C 332.6385 105.2183 332.8065 105.2341 332.9499 105.2001M326.2499 101.5501C 325.9127 101.5466 325.636 101.2708 325.636 100.9359C 325.636 100.5971 325.9127 100.3253 326.2487 100.3253C 326.5886 100.3253 326.8614 100.5971 326.8614 100.9359C 326.8614 101.2708 326.5886 101.5466 326.2499 101.5501" stroke="none" fill="#CC3935" fill-rule="evenodd" /><g clip-path="url(#2)"><g transform="matrix(0.1600742 0 0 0.1600995 0 0)"><g transform="matrix(1 0 0 1 0 0)"><image x="0" y="0" xlink:href="img_11.png" width="1752" height="3718" /></g></g></g><g clip-path="url(#3)"><path id="889" transform="matrix(1 0 0 -1 0 595)" d="M-0.00011225 141.7002L124.1499 141.7002L124.1499 141.7002L140.2499 113.9002L140.2499 113.9002L156.2999 141.7002L156.2999 141.7002L280.4499 141.7001L280.4499 141.7001L280.4498 -1.149896L280.4498 -1.149896L-0.000183675 -1.149756L-0.000183675 -1.149756L-0.00011225 141.7002zM14.09986 92.00024L14.09986 88.40024L14.09986 88.40024L265.6498 88.40012L265.6498 88.40012L265.6499 92.00011L265.6499 92.00011L14.09986 92.00024z" stroke="none" fill="#CC3935" fill-rule="evenodd" /></g><path id="921" transform="matrix(1 0 0 -1 0 595)" d="M41.05 359.4502L251.45 359.4501L251.45 359.4501L251.45 352.5001L251.45 352.5001L217.1 311.0001L217.1 311.0001L41.04997 311.0002L41.04997 311.0002L41.05 359.4502zM251.45 346.8501L251.45 311.0001L251.45 311.0001L221.75 311.0001L221.75 311.0001L251.45 346.8501z" stroke="none" fill="#CC3935" fill-rule="evenodd" /><path id="949" transform="matrix(1 0 0 -1 0 595)" d="M16.19985 55.50024L266.1498 55.45024" stroke="#FFFFFF" stroke-width="1" fill="none" /><path id="950" transform="matrix(1 0 0 -1 0 595)" d="M233.9 355.9001L43.14999 355.9002L42.64999 355.9002L42.64999 355.4002L42.64997 314.9502L42.64997 314.4502L43.14997 314.4502L233.9 314.4501L234.4 314.4501L234.4 314.9501L234.4 355.4001L234.4 355.9001L233.9 355.9001zM233.4 355.4001L233.4 314.9501L233.9 314.9501L233.9 315.4501L43.14997 315.4502L43.14997 314.9502L43.64997 314.9502L43.64999 355.4002L43.14999 355.4002L43.14999 354.9002L233.9 354.9001L233.9 355.4001L233.4 355.4001z" stroke="none" fill="#000000" fill-rule="nonzero" /><g transform="matrix(0.09982699 0 0 0.09983333 583.45 454.15)"><g transform="matrix(1 0 0 1 0 0)"><image x="0" y="0" xlink:href="img_12.png" width="578" height="300" /></g></g><g transform="matrix(0.05614679 0 0 0.05613207 643 452.45)"><g transform="matrix(1 0 0 1 0 0)"><image x="0" y="0" xlink:href="img_13.png" width="1090" height="636" /></g></g><g transform="matrix(0.1261962 0 0 0.1262712 704.2 447.75)"><g transform="matrix(1 0 0 1 0 0)"><image x="0" y="0" xlink:href="img_14.png" width="418" height="354" /></g></g><g transform="matrix(0.09565478 0 0 0.09566265 754.9 449.55)"><g transform="matrix(1 0 0 1 0 0)"><image x="0" y="0" xlink:href="img_15.png" width="840" height="415" /></g></g><g transform="matrix(0.1102444 0 0 0.1104027 582.9 486.7)"><g transform="matrix(1 0 0 1 0 0)"><image x="0" y="0" xlink:href="img_16.png" width="532" height="298" /></g></g><g transform="matrix(0.1093985 0 0 0.1093645 646.3 486.9)"><g transform="matrix(1 0 0 1 0 0)"><image x="0" y="0" xlink:href="img_17.png" width="532" height="299" /></g></g><g transform="matrix(0.09032921 0 0 0.09043887 708.0499 487.45)"><g transform="matrix(1 0 0 1 0 0)"><image x="0" y="0" xlink:href="img_18.png" width="486" height="319" /></g></g><g transform="matrix(0.0592 0 0 0.05926967 714.25 518.9)"><g transform="matrix(1 0 0 1 0 0)"><image x="0" y="0" xlink:href="img_19.png" width="500" height="534" /></g></g><g transform="matrix(0.09916667 0 0 0.09916667 582.8 519.75)"><g transform="matrix(1 0 0 1 0 0)"><image x="0" y="0" xlink:href="img_20.png" width="600" height="300" /></g></g><g transform="matrix(0.0992 0 0 0.0896 648.95 519.25)"><g transform="matrix(1 0 0 1 0 0)"><image x="0" y="0" xlink:href="img_21.png" width="500" height="500" /></g></g><g transform="matrix(0.1319 0 0 0.131982 762.2 481.55)"><g transform="matrix(1 0 0 1 0 0)"><image x="0" y="0" xlink:href="img_22.png" width="500" height="333" /></g></g><g transform="matrix(0.1396 0 0 0.1398045 758 514.1)"><g transform="matrix(1 0 0 1 0 0)"><image x="0" y="0" xlink:href="img_23.png" width="500" height="358" /></g></g><g transform="matrix(0.08647619 0 0 0.08664047 778.3 1.250122)"><g transform="matrix(1 0 0 1 0 0)"><image x="0" y="0" xlink:href="img_04.png" width="525" height="509" /></g></g><g transform="matrix(0.08647619 0 0 0.08664047 494.6 0.7000122)"><g transform="matrix(1 0 0 1 0 0)"><image x="0" y="0" xlink:href="img_04.png" width="525" height="509" /></g></g><g transform="matrix(0.05726667 0 0 0.05726667 194.9 453.3)"><g transform="matrix(1 0 0 1 0 0)"><image x="0" y="0" xlink:href="img_24.png" width="1500" height="1500" /></g></g></g></g></svg>