<svg xmlns="http://www.w3.org/2000/svg" xmlns:xlink="http://www.w3.org/1999/xlink" id="body_3" preserveAspectRatio="xMinYMin meet" viewBox="0 0 1121 793"><defs><clipPath id="1"><path id="" clip-rule="evenodd" transform="matrix(1 0 0 1 0 0)" d="M0 595L0 0L0 0L841 0L841 0L841 595L841 595L0 595z" /></clipPath><clipPath id="2"><path id="" clip-rule="evenodd" transform="matrix(1 0 0 1 0 0)" d="M0 595L280.45 595L280.45 595L280.45 0L280.45 0L0 0z" /></clipPath><clipPath id="3"><path id="" clip-rule="evenodd" transform="matrix(1 0 0 1 0 0)" d="M0 595L841 595L841 595L841 0L841 0L0 0z" /></clipPath></defs><g transform="matrix(1.333333 0 0 1.333333 0 0)"><g clip-path="url(#1)"><path id="26" transform="matrix(1 0 0 -1 0 595)" d="M356.3595 204.3277C 356.2863 204.3488 356.2863 204.3488 356.2863 204.3488C 356.2863 197.8314 356.2863 197.8314 356.2863 197.8314C 355.0595 197.7777 355.0595 197.7777 355.0595 197.7777C 355.0596 204.3488 355.0596 204.3488 355.0596 204.3488C 355.0596 204.4562 355.0596 204.4562 355.0596 204.4562C 355.0596 205.5291 355.0596 205.5291 355.0596 205.5291C 355.6996 208.0503 357.9663 209.9277 360.6596 209.9277C 360.6596 208.4525 360.6596 208.4525 360.6596 208.4525C 358.3929 208.3988 356.5529 206.6287 356.3595 204.3277" stroke="none" fill="#FFFFFF" fill-rule="evenodd" /><path id="27" transform="matrix(1 0 0 -1 0 595)" d="M358.093 213.8347C 358.093 218.7847 358.093 218.7847 358.093 218.7847C 358.6512 218.7847 358.6512 218.7847 358.6512 218.7847C 358.6512 213.8103 358.6512 213.8103 358.6512 213.8103C 358.7311 213.0079 359.3688 212.3661 360.193 212.3661C 360.193 211.8847 360.193 211.8847 360.193 211.8847C 360.1665 211.8847 360.1398 211.8847 360.1132 211.8847C 359.0233 211.8847 358.1196 212.7404 358.093 213.8347" stroke="none" fill="#FFFFFF" fill-rule="evenodd" /><path id="28" transform="matrix(1 0 0 -1 0 595)" d="M356.1143 213.7346C 356.0365 212.7138 355.2062 211.8847 354.1423 211.8847C 354.1163 211.8847 354.0903 211.8847 354.0643 211.8847C 354.0643 212.3661 354.0643 212.3661 354.0643 212.3661C 354.8428 212.3661 355.4915 213.0079 355.5434 213.8103C 355.5434 218.7847 355.5434 218.7847 355.5434 218.7847C 356.1143 218.7847 356.1143 218.7847 356.1143 218.7847C 356.1143 213.837 356.1143 213.837 356.1143 213.837C 356.1143 213.8103 356.1143 213.8103 356.1143 213.8347L356.1143 213.8347L356.1143 213.7346z" stroke="none" fill="#FFFFFF" fill-rule="evenodd" /><path id="29" transform="matrix(1 0 0 -1 0 595)" d="M344.2809 203.004C 344.0196 204.7303 344.7962 206.5331 346.4028 207.448C 348.0095 208.3898 349.9375 208.1745 351.2809 207.054L351.2809 207.054L344.2809 203.004zM354.3309 204.654C 352.8831 204.4342 352.8831 204.4342 352.8831 204.4342C 353.2045 202.6584 352.4279 200.7749 350.7676 199.8331C 348.679 198.6223 346.0279 199.3219 344.8228 201.4207C 353.0973 206.2372 353.0973 206.2372 353.0973 206.2372C 353.6598 206.56 353.6598 206.56 353.6598 206.56C 353.633 206.56 353.633 206.587 353.633 206.587C 352.0263 209.4122 348.4647 210.354 345.6798 208.7396C 342.8681 207.1251 341.9309 203.5464 343.5376 200.7211C 345.1443 197.9227 348.7058 196.954 351.4906 198.5954C 353.6865 199.86 354.7309 202.3086 354.3309 204.654" stroke="none" fill="#FFFFFF" fill-rule="evenodd" /><path id="30" transform="matrix(1 0 0 -1 0 595)" d="M350.9386 213.7772C 350.93 213.8178 350.93 213.8178 350.93 213.8178C 350.93 213.8178 350.93 213.8178 350.93 213.8446C 350.93 214.7342 350.93 214.7342 350.93 214.7342C 348.4475 214.7342 348.4475 214.7342 348.4475 214.7342C 348.4475 213.8446 348.4475 213.8446 348.4475 213.8446C 348.4475 213.8178 348.4475 213.8178 348.4475 213.8178C 348.4475 213.7639 348.4475 213.7639 348.4475 213.7639C 348.3673 212.7126 347.4865 211.8772 346.4188 211.8772C 346.3921 211.8772 346.3654 211.8772 346.3386 211.8772C 346.3386 212.3623 346.3386 212.3623 346.3386 212.3623C 347.1395 212.3623 347.8068 213.0092 347.8602 213.8178C 347.8602 214.7342 347.8602 214.7342 347.8602 214.7342C 347.8602 215.3272 347.8602 215.3272 347.8602 215.3272C 348.4475 215.3272 348.4475 215.3272 348.4475 215.3272C 350.93 215.3272 350.93 215.3272 350.93 215.3272C 351.1168 215.3272 351.1168 215.3272 351.1168 215.3272C 351.5172 215.3272 351.5172 215.3272 351.5172 215.3272C 351.5172 213.8178 351.5172 213.8178 351.5172 213.8178C 351.5706 213.0092 352.2379 212.3623 353.0386 212.3623C 353.0386 211.8772 353.0386 211.8772 353.0386 211.8772C 353.0121 211.8772 352.9852 211.8772 352.9585 211.8772C 351.8909 211.8772 351.0101 212.7126 350.9386 213.7772" stroke="none" fill="#FFFFFF" fill-rule="evenodd" /><path id="31" transform="matrix(1 0 0 -1 0 595)" d="M352.3282 215.9138L347.0783 215.9138L347.0783 215.9138L347.0783 215.5639L347.0783 215.5639L346.5282 215.5639L346.5282 215.5639L346.5282 215.9138L346.5282 215.9138L346.5282 216.4639L346.5282 216.4639L347.0783 216.4639L347.0783 216.4639L352.3282 216.4639L352.3282 216.4639L352.8782 216.4639L352.8782 216.4639L352.8782 215.9138L352.8782 215.9138L352.8782 215.5639L352.8782 215.5639L352.3282 215.5639L352.3282 215.5639L352.3282 215.9138z" stroke="none" fill="#FFFFFF" fill-rule="evenodd" /><path id="32" transform="matrix(1 0 0 -1 0 595)" d="M349.9678 217.4424L351.7179 217.4424L351.7179 217.4424L351.7179 216.8925L351.7179 216.8925L347.7179 216.8925L347.7179 216.8925L347.7179 217.4424L347.7179 217.4424L349.4179 217.4424L349.4179 217.4424L349.4179 218.0424L349.4179 218.0424L346.7179 218.0424L346.7179 218.0424L346.7179 218.5925L346.7179 218.5925L349.4179 218.5925L349.4179 218.5925L349.4179 219.5424L349.4179 219.5424L349.9678 219.5424L349.9678 219.5424L349.9678 218.5925L349.9678 218.5925L352.6679 218.5925L352.6679 218.5925L352.6679 218.0424L352.6679 218.0424L349.9678 218.0424L349.9678 218.0424L349.9678 217.4424z" stroke="none" fill="#FFFFFF" fill-rule="evenodd" /><path id="33" transform="matrix(1 0 0 -1 0 595)" d="M341.4855 211.8244L340.9356 211.8244L340.9356 211.8244L340.9356 212.3744L340.9356 212.3744L340.9356 215.8744L340.9356 215.8744L341.4356 215.8744L341.4356 215.8744L342.1356 216.2744L342.1356 216.2744L342.3855 215.7744L342.3855 215.7744L341.4855 215.2244L341.4855 215.2244L341.4855 214.1244L341.4855 214.1244L342.6856 214.1244L342.6856 214.1244L342.6856 213.5744L342.6856 213.5744L341.4855 213.5744L341.4855 213.5744L341.4855 212.3744L341.4855 212.3744L344.5856 212.3744L344.5856 212.3744L344.5856 213.5744L344.5856 213.5744L343.4356 213.5744L343.4356 213.5744L343.4356 214.1244L343.4356 214.1244L344.5856 214.1244L344.5856 214.1244L344.5856 215.3244L344.5856 215.3244L343.4356 215.3244L343.4356 215.3244L343.4356 215.8744L343.4356 215.8744L344.5856 215.8744L344.5856 215.8744L345.1856 215.8744L345.1856 215.8744L345.1856 211.8244L345.1856 211.8244L344.5856 211.8244L344.5856 211.8244L341.4855 211.8244z" stroke="none" fill="#FFFFFF" fill-rule="evenodd" /><path id="34" transform="matrix(1 0 0 -1 0 595)" d="M344.0163 216.8348L344.6663 217.8848L344.6663 217.8848L345.1663 217.5848L345.1663 217.5848L344.4663 216.5348L344.4663 216.5348L344.0163 216.8348z" stroke="none" fill="#FFFFFF" fill-rule="evenodd" /><path id="35" transform="matrix(1 0 0 -1 0 595)" d="M343.4601 217.0242L342.9601 216.7242L342.9601 216.7242L342.3101 217.7742L342.3101 217.7742L342.7601 218.0742L342.7601 218.0742L343.4601 217.0242z" stroke="none" fill="#FFFFFF" fill-rule="evenodd" /><path id="36" transform="matrix(1 0 0 -1 0 595)" d="M341.1251 217.5848L341.6251 217.8848L341.6251 217.8848L342.2752 216.8348L342.2752 216.8348L341.8251 216.5348L341.8251 216.5348L341.1251 217.5848z" stroke="none" fill="#FFFFFF" fill-rule="evenodd" /><path id="37" transform="matrix(1 0 0 -1 0 595)" d="M340.9356 218.7425L344.7856 219.5424L344.7856 219.5424L344.9356 219.0424L344.9356 219.0424L341.0856 218.1925L341.0856 218.1925L340.9356 218.7425z" stroke="none" fill="#FFFFFF" fill-rule="evenodd" /><path id="38" transform="matrix(1 0 0 -1 0 595)" d="M339.4386 215.7269L339.4885 215.7769L339.4885 215.7769L340.5885 213.8769L340.5885 213.8769L340.0885 213.5769L340.0885 213.5769L339.4386 214.8269L339.4386 214.8269L339.4386 211.8269L339.4386 211.8269L338.7886 211.8269L338.7886 211.8269L338.7886 215.2269L338.7886 215.2269L337.7386 213.3769L337.7386 213.3769L337.2386 213.7269L337.2386 213.7269L338.7886 216.4268L338.7886 216.4268L338.7886 216.8269L338.7886 216.8269L337.4885 216.8269L337.4885 216.8269L337.4885 217.4269L337.4885 217.4269L338.7886 217.4268L338.7886 217.4268L338.7886 218.0269L338.7886 218.0269L339.4386 218.0269L339.4386 218.0269L339.4386 217.4268L339.4386 217.4268L340.7386 217.4268L340.7386 217.4268L340.7386 216.8269L340.7386 216.8269L339.4386 216.8269L339.4386 216.8269L339.4386 215.7269z" stroke="none" fill="#FFFFFF" fill-rule="evenodd" /><path id="39" transform="matrix(1 0 0 -1 0 595)" d="M337.4281 218.7451L340.3281 219.495L340.3281 219.495L340.4782 218.995L340.4782 218.995L337.6282 218.1951L337.6282 218.1951L337.4281 218.7451z" stroke="none" fill="#FFFFFF" fill-rule="evenodd" /><path id="40" transform="matrix(1 0 0 -1 0 595)" d="M328.538 199.3016C 326.1271 199.2944 324.1658 201.2449 324.1658 203.6498C 324.1658 206.0814 326.1272 208.0319 328.5455 208.0319C 330.9635 208.0319 332.9248 206.0813 332.9248 203.6498C 332.9248 201.2449 330.9634 199.2944 328.538 199.3016M342.5879 200.5015C 341.7646 199.7485 340.6898 199.2677 339.5076 199.2677C 337.0895 199.2677 335.1013 201.2449 335.1013 203.6765C 335.1013 206.0813 337.0896 208.0586 339.5076 208.0586C 340.6899 208.0586 341.7378 207.6044 342.517 206.8562C 343.4842 207.9517 343.4842 207.9517 343.4842 207.9517C 342.4364 208.9136 341.0392 209.5015 339.5076 209.5015C 336.9821 209.5015 334.8595 207.9517 334.0265 205.7339C 333.1936 207.9517 331.0441 209.5015 328.5455 209.5015C 325.3211 209.5015 322.688 206.9096 322.688 203.6766C 322.688 200.4701 325.321 197.8516 328.5454 197.8516C 331.0441 197.8516 333.1935 199.428 334.0265 201.6458C 334.8594 199.428 336.9821 197.8516 339.5076 197.8516C 341.0661 197.8516 342.4901 198.466 343.538 199.5015L343.538 199.5015L342.5879 200.5015z" stroke="none" fill="#FFFFFF" fill-rule="evenodd" /><path id="41" transform="matrix(1 0 0 -1 0 595)" d="M315.9998 203.3502C 313.3784 200.4926 309.8961 200.0092 309.8961 200.0092C 309.8961 200.0092 310.0034 203.3127 313.0302 206.1866C 316.0568 209.0336 318.9498 209.7586 318.9498 209.7586C 318.9498 209.7586 318.548 206.2402 315.9998 203.3502M308.7177 199.9823C 308.7177 199.9823 305.8515 203.2859 305.6105 206.2134C 305.2623 210.1884 308.1284 213.7068 308.1284 213.7068C 307.9409 208.2278 309.7623 205.8105 309.7623 205.8105C 309.7623 205.8105 310.1909 205.166 309.8962 203.2859C 309.6016 201.4326 308.7177 199.9823 308.6998 200.0002M309.3497 212.4502C 309.6284 216.0434 311.798 218.7294 311.798 218.7294C 311.798 218.7294 313.8872 216.151 313.4586 212.0416C 313.0568 208.0129 310.9409 205.6763 310.9409 205.6763C 310.9409 205.6763 309.0123 208.8724 309.3497 212.4502M310.8497 221.2002C 310.673 221.2002 310.5391 221.2002 310.3784 221.1734C 310.3784 221.2002 310.3784 221.2002 310.3784 221.2002C 302.4498 221.2002 302.4498 221.2002 302.4498 221.2002C 302.4497 197.3503 302.4497 197.3503 302.4497 197.3503C 310.3784 197.3502 310.3784 197.3502 310.3784 197.3502C 310.5123 197.3502 310.6462 197.3502 310.7802 197.3502C 317.3427 197.3502 322.6998 202.7756 322.6998 209.3289C 322.6998 215.9092 317.3694 221.1734 310.8497 221.2002" stroke="none" fill="#FFFFFF" fill-rule="evenodd" /><path id="42" transform="matrix(1 0 0 -1 0 595)" d="M643.6099 531.2772C 643.5368 531.2984 643.5368 531.2984 643.5368 531.2984C 643.5368 524.7809 643.5368 524.7809 643.5368 524.7809C 642.3099 524.7272 642.3099 524.7272 642.3099 524.7272C 642.3099 531.2984 642.3099 531.2984 642.3099 531.2984C 642.3099 531.4057 642.3099 531.4057 642.3099 531.4057C 642.3099 532.4787 642.3099 532.4787 642.3099 532.4787C 642.95 534.9998 645.2168 536.8772 647.91 536.8772C 647.91 535.4022 647.91 535.4022 647.91 535.4022C 645.6433 535.3482 643.8035 533.5782 643.6099 531.2772" stroke="none" fill="#FFFFFF" fill-rule="evenodd" /><path id="43" transform="matrix(1 0 0 -1 0 595)" d="M645.3433 540.7844C 645.3433 545.7344 645.3433 545.7344 645.3433 545.7344C 645.9017 545.7344 645.9017 545.7344 645.9017 545.7344C 645.9017 540.7598 645.9017 540.7598 645.9017 540.7598C 645.9815 539.9574 646.6193 539.3156 647.4435 539.3156C 647.4435 538.8342 647.4435 538.8342 647.4435 538.8342C 647.4169 538.8342 647.3903 538.8342 647.3637 538.8342C 646.2739 538.8342 645.3699 539.69 645.3433 540.7844" stroke="none" fill="#FFFFFF" fill-rule="evenodd" /><path id="44" transform="matrix(1 0 0 -1 0 595)" d="M643.3648 540.6842C 643.287 539.6631 642.4565 538.8342 641.3928 538.8342C 641.3666 538.8342 641.3408 538.8342 641.3148 538.8342C 641.3148 539.3156 641.3148 539.3156 641.3148 539.3156C 642.0933 539.3156 642.7418 539.9574 642.794 540.7598C 642.794 545.7344 642.794 545.7344 642.794 545.7344C 643.3648 545.7344 643.3648 545.7344 643.3648 545.7344C 643.3648 540.7865 643.3648 540.7865 643.3648 540.7865C 643.3648 540.7598 643.3648 540.7598 643.3648 540.7844L643.3648 540.7844L643.3648 540.6842z" stroke="none" fill="#FFFFFF" fill-rule="evenodd" /><path id="45" transform="matrix(1 0 0 -1 0 595)" d="M631.5314 529.9534C 631.27 531.6798 632.0466 533.4827 633.6533 534.3975C 635.2599 535.3392 637.1881 535.124 638.5314 534.0034L638.5314 534.0034L631.5314 529.9534zM641.5814 531.6033C 640.1337 531.3839 640.1337 531.3839 640.1337 531.3839C 640.455 529.6078 639.6785 527.7244 638.0183 526.7827C 635.9295 525.5719 633.2785 526.2714 632.0734 528.3702C 640.3478 533.1867 640.3478 533.1867 640.3478 533.1867C 640.9103 533.5093 640.9103 533.5093 640.9103 533.5093C 640.8835 533.5093 640.8835 533.5365 640.8835 533.5365C 639.2768 536.3618 635.7153 537.3033 632.9305 535.689C 630.1185 534.0747 629.1813 530.496 630.7883 527.6705C 632.3948 524.8722 635.9563 523.9035 638.7412 525.5449C 640.937 526.8093 641.9815 529.2581 641.5814 531.6033" stroke="none" fill="#FFFFFF" fill-rule="evenodd" /><path id="46" transform="matrix(1 0 0 -1 0 595)" d="M638.1892 540.7269C 638.1805 540.7673 638.1805 540.7673 638.1805 540.7673C 638.1805 540.7673 638.1805 540.7673 638.1805 540.7944C 638.1805 541.6837 638.1805 541.6837 638.1805 541.6837C 635.698 541.6837 635.698 541.6837 635.698 541.6837C 635.698 540.7944 635.698 540.7944 635.698 540.7944C 635.698 540.7673 635.698 540.7673 635.698 540.7673C 635.698 540.7134 635.698 540.7134 635.698 540.7134C 635.6179 539.6622 634.737 538.8267 633.6693 538.8267C 633.6425 538.8267 633.6159 538.8267 633.5892 538.8267C 633.5892 539.3118 633.5892 539.3118 633.5892 539.3118C 634.39 539.3118 635.0574 539.9587 635.1107 540.7673C 635.1107 541.6837 635.1107 541.6837 635.1107 541.6837C 635.1107 542.2767 635.1107 542.2767 635.1107 542.2767C 635.698 542.2767 635.698 542.2767 635.698 542.2767C 638.1805 542.2767 638.1805 542.2767 638.1805 542.2767C 638.3673 542.2767 638.3673 542.2767 638.3673 542.2767C 638.7678 542.2767 638.7678 542.2767 638.7678 542.2767C 638.7678 540.7673 638.7678 540.7673 638.7678 540.7673C 638.8211 539.9587 639.4885 539.3118 640.2893 539.3118C 640.2893 538.8267 640.2893 538.8267 640.2893 538.8267C 640.2625 538.8267 640.2358 538.8267 640.2091 538.8267C 639.1412 538.8267 638.2605 539.6622 638.1892 540.7269" stroke="none" fill="#FFFFFF" fill-rule="evenodd" /><path id="47" transform="matrix(1 0 0 -1 0 595)" d="M639.5788 542.8633L634.3288 542.8633L634.3288 542.8633L634.3288 542.5134L634.3288 542.5134L633.7788 542.5134L633.7788 542.5134L633.7788 542.8633L633.7788 542.8633L633.7788 543.4134L633.7788 543.4134L634.3288 543.4134L634.3288 543.4134L639.5788 543.4134L639.5788 543.4134L640.1288 543.4134L640.1288 543.4134L640.1288 542.8633L640.1288 542.8633L640.1288 542.5134L640.1288 542.5134L639.5788 542.5134L639.5788 542.5134L639.5788 542.8633z" stroke="none" fill="#FFFFFF" fill-rule="evenodd" /><path id="48" transform="matrix(1 0 0 -1 0 595)" d="M637.2184 544.392L638.9684 544.392L638.9684 544.392L638.9684 543.8419L638.9684 543.8419L634.9684 543.8419L634.9684 543.8419L634.9684 544.392L634.9684 544.392L636.6683 544.392L636.6683 544.392L636.6683 544.9922L636.6683 544.9922L633.9684 544.9922L633.9684 544.9922L633.9684 545.5419L633.9684 545.5419L636.6683 545.5419L636.6683 545.5419L636.6683 546.4922L636.6683 546.4922L637.2184 546.4922L637.2184 546.4922L637.2184 545.5419L637.2184 545.5419L639.9185 545.5419L639.9185 545.5419L639.9185 544.9922L639.9185 544.9922L637.2184 544.9922L637.2184 544.9922L637.2184 544.392z" stroke="none" fill="#FFFFFF" fill-rule="evenodd" /><path id="49" transform="matrix(1 0 0 -1 0 595)" d="M628.7361 538.774L628.186 538.774L628.186 538.774L628.186 539.324L628.186 539.324L628.186 542.824L628.186 542.824L628.686 542.824L628.686 542.824L629.3861 543.2241L629.3861 543.2241L629.6361 542.7241L629.6361 542.7241L628.7361 542.174L628.7361 542.174L628.7361 541.074L628.7361 541.074L629.9363 541.0739L629.9363 541.0739L629.9363 540.5239L629.9363 540.5239L628.7361 540.524L628.7361 540.524L628.7361 539.324L628.7361 539.324L631.8361 539.3239L631.8361 539.3239L631.8361 540.5239L631.8361 540.5239L630.686 540.5239L630.686 540.5239L630.686 541.0739L630.686 541.0739L631.8361 541.0739L631.8361 541.0739L631.8361 542.2739L631.8361 542.2739L630.686 542.2739L630.686 542.2739L630.686 542.8239L630.686 542.8239L631.8361 542.8239L631.8361 542.8239L632.4363 542.8239L632.4363 542.8239L632.4363 538.7739L632.4363 538.7739L631.8361 538.7739L631.8361 538.7739L628.7361 538.774z" stroke="none" fill="#FFFFFF" fill-rule="evenodd" /><path id="50" transform="matrix(1 0 0 -1 0 595)" d="M631.2668 543.7844L631.9168 544.8344L631.9168 544.8344L632.4168 544.5344L632.4168 544.5344L631.7168 543.4845L631.7168 543.4845L631.2668 543.7844z" stroke="none" fill="#FFFFFF" fill-rule="evenodd" /><path id="51" transform="matrix(1 0 0 -1 0 595)" d="M630.7106 543.9739L630.2106 543.6737L630.2106 543.6737L629.5606 544.7239L629.5606 544.7239L630.0106 545.0239L630.0106 545.0239L630.7106 543.9739z" stroke="none" fill="#FFFFFF" fill-rule="evenodd" /><path id="52" transform="matrix(1 0 0 -1 0 595)" d="M628.3756 544.5345L628.8756 544.8345L628.8756 544.8345L629.5256 543.7844L629.5256 543.7844L629.0756 543.4846L629.0756 543.4846L628.3756 544.5345z" stroke="none" fill="#FFFFFF" fill-rule="evenodd" /><path id="53" transform="matrix(1 0 0 -1 0 595)" d="M628.186 545.6921L632.0361 546.4922L632.0361 546.4922L632.186 545.9922L632.186 545.9922L628.3361 545.1419L628.3361 545.1419L628.186 545.6921z" stroke="none" fill="#FFFFFF" fill-rule="evenodd" /><path id="54" transform="matrix(1 0 0 -1 0 595)" d="M626.689 542.6763L626.7391 542.7264L626.7391 542.7264L627.8391 540.8264L627.8391 540.8264L627.3391 540.5264L627.3391 540.5264L626.689 541.7764L626.689 541.7764L626.689 538.7764L626.689 538.7764L626.0391 538.7764L626.0391 538.7764L626.0391 542.1763L626.0391 542.1763L624.9891 540.3264L624.9891 540.3264L624.4891 540.6763L624.4891 540.6763L626.0391 543.3764L626.0391 543.3764L626.0391 543.7764L626.0391 543.7764L624.7391 543.7764L624.7391 543.7764L624.7391 544.3764L624.7391 544.3764L626.0391 544.3764L626.0391 544.3764L626.0391 544.9764L626.0391 544.9764L626.689 544.9764L626.689 544.9764L626.689 544.3764L626.689 544.3764L627.9891 544.3764L627.9891 544.3764L627.9891 543.7764L627.9891 543.7764L626.689 543.7764L626.689 543.7764L626.689 542.6763z" stroke="none" fill="#FFFFFF" fill-rule="evenodd" /><path id="55" transform="matrix(1 0 0 -1 0 595)" d="M624.6787 545.6948L627.5787 546.4448L627.5787 546.4448L627.7288 545.9448L627.7288 545.9448L624.8787 545.1445L624.8787 545.1445L624.6787 545.6948z" stroke="none" fill="#FFFFFF" fill-rule="evenodd" /><path id="56" transform="matrix(1 0 0 -1 0 595)" d="M615.7885 526.2509C 613.3778 526.244 611.4163 528.1945 611.4163 530.5994C 611.4163 533.0309 613.3778 534.9814 615.796 534.9814C 618.214 534.9814 620.1754 533.0309 620.1754 530.5994C 620.1754 528.1945 618.214 526.244 615.7885 526.2509M629.8385 527.4509C 629.0153 526.6982 627.9404 526.2173 626.7582 526.2173C 624.34 526.2173 622.3517 528.1945 622.3517 530.6259C 622.3517 533.0309 624.34 535.0082 626.7582 535.0082C 627.9404 535.0082 628.9883 534.554 629.7675 533.8057C 630.735 534.9012 630.735 534.9012 630.735 534.9012C 629.6868 535.8631 628.2897 536.4509 626.7582 536.4509C 624.2328 536.4509 622.1098 534.9012 621.277 532.6834C 620.444 534.9012 618.2948 536.4509 615.796 536.4509C 612.5715 536.4509 609.9385 533.859 609.9385 530.6259C 609.9385 527.4197 612.5715 524.8009 615.796 524.8009C 618.2948 524.8009 620.444 526.3776 621.277 528.5955C 622.1098 526.3776 624.2328 524.8009 626.7582 524.8009C 628.3165 524.8009 629.7405 525.4155 630.7885 526.4509L630.7885 526.4509L629.8385 527.4509z" stroke="none" fill="#FFFFFF" fill-rule="evenodd" /><path id="57" transform="matrix(1 0 0 -1 0 595)" d="M603.2503 530.2997C 600.6289 527.4423 597.1465 526.9587 597.1465 526.9587C 597.1465 526.9587 597.2539 530.2623 600.2808 533.1359C 603.3074 535.9831 606.2003 536.7082 606.2003 536.7082C 606.2003 536.7082 605.7985 533.1898 603.2503 530.2997M595.9683 526.9321C 595.9683 526.9321 593.1019 530.2355 592.861 533.1629C 592.5128 537.1379 595.3789 540.6562 595.3789 540.6562C 595.1914 535.1772 597.0128 532.7601 597.0128 532.7601C 597.0128 532.7601 597.4414 532.1154 597.1465 530.2355C 596.8519 528.3823 595.9683 526.9321 595.9503 526.9498M596.6003 539.3998C 596.8789 542.993 599.0485 545.6787 599.0485 545.6787C 599.0485 545.6787 601.1378 543.1004 600.7092 538.9913C 600.3074 534.9625 598.1914 532.6257 598.1914 532.6257C 598.1914 532.6257 596.2628 535.822 596.6003 539.3998M598.1003 548.1496C 597.9235 548.1496 597.7896 548.1496 597.6289 548.1229C 597.6289 548.1496 597.6289 548.1496 597.6289 548.1496C 589.7003 548.1497 589.7003 548.1497 589.7003 548.1497C 589.7003 524.2998 589.7003 524.2998 589.7003 524.2998C 597.6289 524.2997 597.6289 524.2997 597.6289 524.2997C 597.7628 524.2997 597.8967 524.2997 598.0308 524.2997C 604.5933 524.2997 609.9503 529.7252 609.9503 536.2784C 609.9503 542.8587 604.6198 548.1229 598.1003 548.1496" stroke="none" fill="#FFFFFF" fill-rule="evenodd" /><path id="58" transform="matrix(1 0 0 -1 0 595)" d="M306.2503 546.1002L382.3003 546.1001L382.3003 546.1001L382.3003 549.6501L382.3003 549.6501L306.2503 549.6502z" stroke="none" fill="#262626" fill-rule="evenodd" /><path id="59" transform="matrix(1 0 0 -1 0 595)" d="M382.3971 546.1001L538.6971 546.0999L538.6971 546.0999L538.6971 549.6498L538.6971 549.6498L382.3971 549.6501z" stroke="none" fill="#CC3A35" fill-rule="evenodd" /><path id="76" transform="matrix(1 0 0 -1 0 595)" d="M590.5003 546.1497L666.5503 546.1495L666.5503 546.1495L666.5503 549.6995L666.5503 549.6995L590.5003 549.6996z" stroke="none" fill="#262626" fill-rule="evenodd" /><path id="77" transform="matrix(1 0 0 -1 0 595)" d="M666.6469 546.1495L822.9468 546.1492L822.9468 546.1492L822.9468 549.6992L822.9468 549.6992L666.6469 549.6995z" stroke="none" fill="#CC3935" fill-rule="evenodd" /><path id="103" transform="matrix(1 0 0 -1 0 595)" d="M308.0504 506.9002L536.2004 506.8502" stroke="#A6A6A6" stroke-width="1" fill="none" /><path id="104" transform="matrix(1 0 0 -1 0 595)" d="M590.501 506.8994L818.651 506.8495" stroke="#A6A6A6" stroke-width="1" fill="none" /><path id="105" transform="matrix(1 0 0 -1 0 595)" d="M590.5001 410.4998L818.6501 410.4994L818.6501 410.4994L818.6503 497.5994L818.6503 497.5994L590.5002 497.5998z" stroke="none" fill="#FFFFFF" fill-rule="evenodd" /><g transform="matrix(0.4793068 0 0 0.4785714 590.5 97.39999)"><g transform="matrix(1 0 0 1 0 0)"><image x="0" y="0" xlink:href="img_12.png" width="476" height="182" /></g></g><path id="252" transform="matrix(1 0 0 -1 0 595)" d="M590.5 328.5495L818.65 328.4995" stroke="#A6A6A6" stroke-width="1" fill="none" /><path id="338" transform="matrix(1 0 0 -1 0 595)" d="M590.5 237.2495L818.65 237.1995" stroke="#A6A6A6" stroke-width="1" fill="none" /><path id="352" transform="matrix(1 0 0 -1 0 595)" d="M662.2 226.2494L662.2499 203.1494" stroke="#A6A6A6" stroke-width="1" fill="none" /><path id="377" transform="matrix(1 0 0 -1 0 595)" d="M744.4 226.2491L744.45 203.1491" stroke="#A6A6A6" stroke-width="1" fill="none" /><path id="538" transform="matrix(1 0 0 -1 0 595)" d="M308.0502 436.8502L536.2002 436.8002" stroke="#A6A6A6" stroke-width="1" fill="none" /><path id="539" transform="matrix(1 0 0 -1 0 595)" d="M363.1501 391.2502C 363.1501 376.9735 351.3266 365.1502 337.05 365.1502C 322.7734 365.1502 310.95 376.9736 310.9501 391.2502C 310.9501 405.5269 322.7735 417.3501 337.0501 417.3501C 351.3267 417.3501 363.1501 405.5268 363.1501 391.2502M361.1501 391.2502C 361.1501 404.6982 350.4981 415.3501 337.0501 415.3501C 323.602 415.3501 312.9501 404.6983 312.9501 391.2502C 312.95 377.8021 323.6019 367.1502 337.05 367.1502C 350.498 367.1502 361.1501 377.802 361.1501 391.2502" stroke="none" fill="#CC3935" fill-rule="nonzero" /><path id="540" transform="matrix(1 0 0 -1 0 595)" d="M449.4501 391.25C 449.45 376.9734 437.6266 365.15 423.3499 365.1501C 409.0734 365.1501 397.2501 376.9735 397.2501 391.2501C 397.2501 405.5267 409.0735 417.35 423.35 417.35C 437.6267 417.3499 449.4501 405.5266 449.4501 391.25M447.4501 391.25C 447.4501 404.6981 436.7982 415.3499 423.35 415.35C 409.902 415.35 399.2501 404.6982 399.2501 391.2501C 399.2501 377.8019 409.9019 367.1501 423.3499 367.1501C 436.7981 367.15 447.45 377.8018 447.4501 391.25" stroke="none" fill="#CC3935" fill-rule="nonzero" /><path id="541" transform="matrix(1 0 0 -1 0 595)" d="M535.7001 391.2499C 535.7001 376.9733 523.8765 365.1499 509.6 365.1499C 495.3233 365.1499 483.5001 376.9734 483.5001 391.25C 483.5001 405.5266 495.3234 417.3499 509.6001 417.3498C 523.8766 417.3498 535.7001 405.5265 535.7001 391.2499M533.7001 391.2499C 533.7001 404.698 523.0481 415.3498 509.6001 415.3498C 496.152 415.3499 485.5001 404.6981 485.5001 391.25C 485.5001 377.8018 496.1519 367.1499 509.6 367.1499C 523.048 367.1499 533.7001 377.8017 533.7001 391.2499" stroke="none" fill="#CC3935" fill-rule="nonzero" /><path id="542" transform="matrix(1 0 0 -1 0 595)" d="M413.85 400.35L432.8001 400.3499C 433.541 400.3499 434.1501 399.7418 434.1501 399L434.1501 399L434.1501 383.45C 434.1501 382.7083 433.541 382.1 432.8 382.1L432.8 382.1L413.85 382.1001C 413.1092 382.1001 412.5001 382.7084 412.5001 383.45L412.5001 383.45L412.5001 399.0001C 412.5001 399.7419 413.1092 400.35 413.85 400.35M413.85 399.7001C 413.4899 399.6911 413.1854 399.3868 413.2001 399.0001L413.2001 399.0001L413.2001 396.3L413.2001 396.3L415.0501 396.3L415.0501 396.3L416.0001 399.7001L416.0001 399.7001L413.85 399.7001zM416.6501 399.7001L415.7501 396.3L415.7501 396.3L418.8001 396.3L418.8001 396.3L419.7001 399.7001L419.7001 399.7001L416.6501 399.7001zM420.4 399.7001L419.5001 396.3L419.5001 396.3L422.5501 396.3L422.5501 396.3L423.4 399.7001L423.4 399.7001L420.4 399.7001zM424.1001 399.7001L423.2001 396.3L423.2001 396.3L426.2501 396.3L426.2501 396.3L427.1501 399.7001L427.1501 399.7001L424.1001 399.7001zM427.85 399.7001L426.9501 396.3L426.9501 396.3L429.9501 396.3L429.9501 396.3L430.9 399.7L430.9 399.7L427.85 399.7001zM431.5501 399.7L430.6501 396.3L430.6501 396.3L433.5001 396.3L433.5001 396.3L433.5001 399C 433.4902 399.3867 433.1856 399.691 432.8001 399.7L432.8001 399.7L431.5501 399.7zM413.2001 395.6501L413.2001 383.45C 413.1854 383.0885 413.4899 382.7845 413.85 382.8L413.85 382.8L432.8 382.8C 433.1855 382.7844 433.4901 383.0884 433.5001 383.45L433.5001 383.45L433.5001 395.65L433.5001 395.65L413.2001 395.6501zM421.1501 392.55C 421.2315 392.5962 421.333 392.5962 421.4501 392.55L421.4501 392.55L426.85 389.85C 426.9659 389.7827 427.042 389.6813 427.042 389.5544C 427.042 389.4277 426.9659 389.301 426.85 389.2501L426.85 389.2501L421.45 386.55C 421.409 386.5129 421.3582 386.5129 421.3075 386.5129C 421.2314 386.5129 421.1807 386.5129 421.1299 386.5635C 421.0284 386.6143 420.9523 386.7158 420.95 386.85L420.95 386.85L420.9501 392.2501C 420.9523 392.368 421.0285 392.4695 421.1501 392.55M421.6501 391.7001L421.6501 387.4L421.6501 387.4L425.95 389.55L425.95 389.55L421.6501 391.7001z" stroke="none" fill="#CC3935" fill-rule="evenodd" /><path id="543" transform="matrix(1 0 0 -1 0 595)" d="M509.6001 402.0499C 509.8375 402.0499 510.0499 401.838 510.0501 401.5999L510.0501 401.5999L510.0501 399.6999C 514.355 399.4786 517.8229 396.0188 518.0499 391.6999L518.0499 391.6999L519.9501 391.6999C 520.1877 391.7177 520.4001 391.5117 520.4001 391.2469C 520.4001 390.988 520.1877 390.7763 519.9501 390.7999L519.9501 390.7999L518.0499 390.7999C 517.8229 386.4809 514.355 383.0212 510.05 382.7999L510.05 382.7999L510.05 380.8998C 510.0499 380.6617 509.8375 380.4499 509.5779 380.4499C 509.3126 380.4499 509.1062 380.6617 509.1001 380.8998L509.1001 380.8998L509.1001 382.7999C 504.7951 383.0212 501.3271 386.481 501.1001 390.7999L501.1001 390.7999L499.2001 390.7999C 498.9624 390.7763 498.7501 390.9881 498.7501 391.2469C 498.7501 391.5117 498.9624 391.7177 499.2001 391.7L499.2001 391.7L501.1001 391.7C 501.174 393.1828 501.628 394.5949 502.4242 395.8306C 503.2795 397.1603 504.4884 398.2195 505.9098 398.902C 506.1458 399.0138 506.4286 398.9137 506.5408 398.6784C 506.6529 398.443 506.5526 398.1666 506.3167 398.0488C 503.71 396.8073 502.0232 394.136 502.0232 391.2469C 502.0232 387.0929 505.4084 383.7156 509.5779 383.7156C 513.7415 383.7156 517.1267 387.0929 517.1267 391.2469C 517.1267 395.4069 513.7415 398.7843 509.578 398.7843C 509.3126 398.7843 509.1062 398.9961 509.1001 399.2499L509.1001 399.2499L509.1001 401.5999C 509.1062 401.838 509.3126 402.0499 509.6001 402.0499M509.6001 393.6499C 510.8944 393.6285 511.9619 392.5636 511.9619 391.2457C 511.9619 389.9336 510.8943 388.8686 509.5793 388.8686C 508.2581 388.8686 507.1908 389.9336 507.1908 391.2457C 507.1908 392.5636 508.2582 393.6285 509.6001 393.6499M509.6001 392.6999C 508.7831 392.6872 508.1344 392.04 508.1344 391.2457C 508.1344 390.4513 508.7831 389.8101 509.5793 389.8101C 510.3755 389.8101 511.0183 390.4513 511.0183 391.2457C 511.0183 392.04 510.3755 392.6872 509.6001 392.6999" stroke="none" fill="#CC3935" fill-rule="evenodd" /><path id="544" transform="matrix(1 0 0 -1 0 595)" d="M336.5001 402.0002L336.7501 402.0002L336.7501 402.0002L336.85 402.0002L336.85 402.0002L337.0001 402.0002L337.0001 402.0002L337.24 402.0002L337.24 402.0002L337.2501 402.0002C 342.9392 401.7945 347.4985 397.1145 347.4985 391.3838C 347.4985 391.1625 347.3529 391.017 347.1501 391.0002L347.1501 391.0002L337.2501 391.0002L337.2501 391.0002L337.2501 381.1502C 337.24 380.9132 337.0944 380.7645 336.85 380.7502L336.85 380.7502L336.7501 380.7502L336.7501 380.7502L336.5085 380.7645L336.5085 380.7645L336.5001 380.7502C 333.5544 380.8752 330.9138 382.1789 329.049 384.2073C 329.0015 384.2294 328.9604 384.2642 328.9255 384.3179C 328.9065 384.3401 328.8938 384.3623 328.8843 384.3875C 327.2444 386.2576 326.2501 388.707 326.2501 391.3838C 326.2501 397.1145 330.8095 401.7945 336.4959 401.9939L336.4959 401.9939L336.5001 402.0002zM335.5501 401.2002C 333.4184 400.8958 331.4965 399.9275 330.0179 398.5036C 330.8569 397.9657 331.7561 397.5354 332.6902 397.2127C 333.3898 398.6808 334.3555 400.0287 335.5501 401.2002M338.2001 401.2002C 339.393 400.0287 340.3586 398.6808 341.0585 397.2127C 341.9925 397.5354 342.8917 397.9657 343.7308 398.5036C 342.2521 399.9275 340.3301 400.8957 338.2001 401.2002M336.5001 401.0502C 335.1883 399.9023 334.1371 398.5195 333.393 396.991C 334.4063 396.7063 335.451 396.5449 336.5001 396.5002L336.5001 396.5002L336.5001 401.0502zM337.2501 401.0502L337.2501 396.5002C 338.2975 396.5449 339.3424 396.7063 340.3555 396.991C 339.6115 398.5195 338.5603 399.9023 337.2501 401.0502M344.2501 397.9502C 343.3475 397.3645 342.3756 396.8834 341.3591 396.529C 341.9735 395.0291 342.3186 393.4123 342.35 391.7502L342.35 391.7502L346.7501 391.7502C 346.6722 394.1305 345.7412 396.2981 344.2501 397.9502M329.5001 397.9502C 328.0042 396.2854 327.0765 394.1241 327.0001 391.7502L327.0001 391.7502L331.4 391.7502C 331.4268 393.4123 331.7752 395.026 332.3894 396.529C 331.373 396.8802 330.3978 397.3549 329.5001 397.9502M333.1001 396.3002C 332.4938 394.8772 332.1614 393.3395 332.1001 391.7502L332.1001 391.7502L336.5001 391.7502L336.5001 391.7502L336.5001 395.8002C 335.337 395.814 334.191 395.9879 333.1001 396.3002M340.6501 396.3002C 339.5576 395.9911 338.4115 395.814 337.2501 395.8002L337.2501 395.8002L337.2501 391.7502L337.2501 391.7502L341.6501 391.7502C 341.5871 393.3395 341.2547 394.8804 340.6501 396.3002M327.0001 391.0002C 327.0733 388.7417 327.9249 386.6629 329.296 385.0332C 330.2365 385.6597 331.2337 386.166 332.2691 386.5426C 331.7275 387.957 331.4268 389.4663 331.4 391.0002L331.4 391.0002L327.0001 391.0002zM332.1001 391.0002C 332.1581 389.5423 332.4464 388.112 332.9625 386.7735C 334.1086 387.1216 335.296 387.3177 336.5001 387.3501L336.5001 387.3501L336.5001 391.0002L336.5001 391.0002L332.1001 391.0002zM343.1501 389.9001C 345.7758 389.8824 347.9 387.7587 347.9 385.1223C 347.9 382.4859 345.741 380.4001 343.1006 380.4001C 341.1916 380.4001 339.4724 381.5427 338.7001 383.2002L338.7001 383.2002L338.7001 381.8501L338.7001 381.8501L337.95 381.8501L337.95 381.8501L337.95 384.8002L337.95 384.8002L338.6335 384.7931C 338.6715 384.7995 338.7095 384.7995 338.7501 384.8002L338.7501 384.8002L340.9 384.8002L340.9 384.8002L340.9 384.0502L340.9 384.0502L339.1501 384.0502C 339.6751 382.375 341.2802 381.1313 343.1006 381.1313C 345.3357 381.1313 347.1308 382.9257 347.1308 385.1603C 347.1308 387.3946 345.3357 389.1861 343.1006 389.1861C 341.9291 389.1861 340.8306 388.7115 340.0993 387.8315C 339.9504 387.6859 339.7321 387.651 339.5864 387.7967C 339.4375 387.9423 339.4028 388.1638 339.5484 388.3094C 340.4284 389.3349 341.7456 389.8824 343.1501 389.9001M336.5001 386.6002C 335.3908 386.5868 334.2954 386.416 333.2411 386.1027C 333.9882 384.4446 335.0933 382.9479 336.5001 381.7002L336.5001 381.7002L336.5001 386.6002zM332.55 385.8501C 331.5819 385.53 330.6606 385.0679 329.7899 384.4888C 331.297 382.9416 333.3075 381.8846 335.5555 381.584C 334.2669 382.8212 333.2505 384.28 332.55 385.8501" stroke="none" fill="#CC3935" fill-rule="evenodd" /><path id="618" transform="matrix(1 0 0 -1 0 595)" d="M308.05 297.4002L536.2 297.3502" stroke="#A6A6A6" stroke-width="1" fill="none" /><path id="886" transform="matrix(1 0 0 -1 0 595)" d="M308.0495 140.8002L536.1995 140.7502" stroke="#A6A6A6" stroke-width="1" fill="none" /><path id="887" transform="matrix(1 0 0 -1 0 595)" d="M326.2497 126.0002C 327.2661 126.0002 328.0921 125.1765 328.0921 124.1676C 328.092 123.1548 327.266 122.3311 326.25 122.3311C 325.7874 122.3311 325.3725 122.5084 325.0496 122.8002L325.0496 122.8002L319.9996 119.9502C 319.9135 119.9113 319.8107 119.8837 319.712 119.8837C 319.4944 119.8837 319.289 119.998 319.1743 120.199C 319.0083 120.4906 319.1151 120.865 319.3996 121.0502L319.3996 121.0502L324.4496 123.8502C 324.4238 123.9548 324.412 124.0573 324.412 124.1676C 324.412 125.1765 325.2381 126.0002 326.2497 126.0002M326.2497 124.8002C 325.9141 124.7785 325.6374 124.5026 325.6374 124.1676C 325.6373 123.8287 325.914 123.5528 326.25 123.5528C 326.5899 123.5528 326.8626 123.8287 326.8627 124.1676C 326.8627 124.5026 326.59 124.7785 326.2497 124.8002M329.4496 123.0502C 329.6021 123.108 329.7691 123.0883 329.8996 123.0002L329.8996 123.0002L334.8996 120.0502C 334.9624 120.1366 335.0453 120.1996 335.1403 120.2509C 336.0176 120.7593 337.1479 120.4558 337.6538 119.5809C 338.1597 118.706 337.8593 117.5789 336.9779 117.0745C 336.6974 116.9129 336.3812 116.8301 336.065 116.8301C 335.903 116.8301 335.745 116.8499 335.5829 116.8932C 335.1086 117.0193 334.7134 117.3228 334.4683 117.7484C 334.2351 118.1464 334.1798 118.5957 334.2496 119.0002L334.2496 119.0002L329.2996 121.9502C 328.9984 122.1228 328.9036 122.4972 329.0775 122.7888C 329.1625 122.9346 329.2989 123.0312 329.4496 123.0502M316.4496 120.5002C 317.4563 120.5001 318.2783 119.6765 318.2783 118.6637C 318.2783 117.8677 317.7646 117.1977 317.0496 116.9502L317.0496 116.9502L317.0496 110.1002C 317.0533 109.7655 316.7807 109.4935 316.4409 109.4935C 316.1011 109.4935 315.8283 109.7655 315.8495 110.1002L315.8495 110.1002L315.8495 116.9502C 315.1172 117.1977 314.5996 117.8678 314.5996 118.6637C 314.5996 119.6765 315.4254 120.5001 316.4496 120.5002M326.2496 120.5002C 326.5894 120.5001 326.8621 120.2242 326.8495 119.9002L326.8495 119.9002L326.8495 118.0002C 328.3361 117.852 329.6364 117.1111 330.5496 116.0002L330.5496 116.0002L332.5996 117.2002C 332.8728 117.3751 333.2483 117.2766 333.4181 116.985C 333.588 116.6895 333.4892 116.3151 333.1996 116.1502L333.1996 116.1502L331.1996 115.0002C 331.5568 114.2541 331.7703 113.4266 331.7703 112.5518C 331.7703 111.8621 331.636 111.2041 331.3996 110.6002L331.3996 110.6002L333.1996 109.5502C 333.4892 109.3953 333.588 109.021 333.4181 108.7293C 333.3073 108.5323 333.098 108.422 332.8885 108.422C 332.782 108.422 332.6791 108.4496 332.5996 108.5002L332.5996 108.5002L330.8495 109.5002C 329.9603 108.1855 328.5219 107.2674 326.8495 107.1002L326.8495 107.1002L326.8495 105.2002C 326.8621 104.8754 326.5894 104.6035 326.2496 104.6035C 325.9137 104.6035 325.6371 104.8754 325.6496 105.2002L325.6496 105.2002L325.6496 107.1002C 324.0208 107.2674 322.5587 108.1501 321.6496 109.5002L321.6496 109.5002L319.8996 108.5002C 319.6264 108.3353 319.251 108.4377 319.0811 108.7293C 318.9113 109.021 319.0139 109.3953 319.2996 109.5502L319.2996 109.5502L321.4496 110.8002C 321.5826 110.877 321.7683 110.8928 321.9496 110.8502L321.9496 110.8502L322.1496 110.7502C 322.3018 110.7115 322.4203 110.609 322.4954 110.479C 322.946 109.6633 323.6494 109.0367 324.4673 108.6623C 324.0919 109.5608 323.8706 110.7312 323.7996 111.9502L323.7996 111.9502L321.3495 111.9502C 321.0096 111.941 320.7329 112.2129 320.7329 112.5518C 320.7329 113.4148 320.9344 114.2423 321.2996 115.0002L321.2996 115.0002L319.2996 116.1502C 319.0139 116.3151 318.9151 116.6895 319.0811 116.985C 319.251 117.2766 319.6264 117.3751 319.8996 117.2002L319.8996 117.2002L321.9496 116.0502C 322.0883 116.1693 322.2149 116.3072 322.3492 116.4412C 323.2464 117.3357 324.3962 117.8795 325.6496 118.0002L325.6496 118.0002L325.6496 119.9002C 325.6371 120.2242 325.9137 120.5001 326.2496 120.5002M316.4496 119.2502C 316.1011 119.2745 315.8283 119.0026 315.8283 118.6637C 315.8283 118.3288 316.1011 118.0529 316.4409 118.0529C 316.7807 118.0529 317.0533 118.3288 317.0533 118.6637C 317.0533 119.0026 316.7807 119.2745 316.4496 119.2502M336.1996 119.2502C 336.067 119.2942 335.899 119.2775 335.7528 119.1947C 335.4603 119.0253 335.3615 118.6509 335.5315 118.3592C 335.6105 118.2174 335.745 118.1149 335.903 118.0715C 336.057 118.0322 336.2231 118.0518 336.3654 118.1346C 336.6578 118.3001 336.7607 118.6785 336.5907 118.9701C 336.5077 119.1159 336.3713 119.2134 336.1996 119.2502M326.2496 116.8502C 324.0919 116.8313 322.3018 115.2314 321.9996 113.1502L321.9996 113.1502L323.7996 113.1502C 323.8469 113.8522 323.9259 114.5221 324.0564 115.125C 324.1315 115.456 324.4594 115.6649 324.7874 115.594C 325.1194 115.523 325.3289 115.1959 325.2577 114.8689C 325.1431 114.3448 325.068 113.7616 325.0496 113.1502L325.0496 113.1502L327.4496 113.1502C 327.3442 115.5466 326.5776 116.8313 326.2496 116.8502M328.0496 116.4502C 328.4113 115.5427 328.6325 114.3723 328.6996 113.1502L328.6996 113.1502L329.2996 113.1502L329.2996 113.1502L329.2996 111.9502L329.2996 111.9502L328.6996 111.9502C 328.6325 110.7273 328.4113 109.5569 328.0319 108.6623C 329.5099 109.3362 330.5413 110.8258 330.5413 112.5518C 330.5413 114.2778 329.5099 115.7634 328.0496 116.4502M336.0496 115.6002C 336.4021 115.6069 336.6747 115.3349 336.6996 115.0002L336.6996 115.0002L336.6996 108.1502C 337.3859 107.906 337.8996 107.2321 337.8996 106.436C 337.8996 105.4271 337.0738 104.6034 336.0623 104.6034C 335.0468 104.6034 334.221 105.4271 334.221 106.436C 334.221 107.2321 334.7346 107.906 335.4496 108.1502L335.4496 108.1502L335.4496 115.0002C 335.4498 115.3349 335.7225 115.6069 336.0496 115.6002M325.0496 111.9502C 325.155 109.5529 325.9216 108.2722 326.2496 108.2722C 326.5776 108.2722 327.3442 109.5529 327.4496 111.9502L327.4496 111.9502L325.0496 111.9502zM316.8996 108.2002C 317.372 108.0866 317.78 107.7931 318.0328 107.3557C 318.262 106.9578 318.3212 106.5086 318.2496 106.1002L318.2496 106.1002L323.1996 103.1502C 323.4969 102.9782 323.5956 102.6039 323.4218 102.3124C 323.3071 102.1193 323.1019 102.0129 322.8924 102.0129C 322.7857 102.0129 322.679 102.0405 322.5996 102.1002L322.5996 102.1002L317.5996 105.0502C 317.535 104.968 317.452 104.905 317.3571 104.8498C 317.0767 104.6883 316.7606 104.6055 316.4446 104.6055C 316.2826 104.6055 316.1244 104.6252 315.9625 104.6686C 315.4883 104.7947 315.0933 105.0981 314.8484 105.5236C 314.3427 106.3983 314.6429 107.5212 315.5201 108.0256C 315.9606 108.2777 316.4623 108.329 316.8996 108.2002M316.4496 107.0502C 316.3339 107.0484 316.2313 107.0247 316.1324 106.9696C 315.8401 106.8002 315.7414 106.4259 315.9113 106.1343C 315.9902 105.9925 316.1245 105.8901 316.2826 105.8467C 316.4366 105.8073 316.6026 105.827 316.7449 105.9098C 317.0411 106.0752 317.14 106.4534 316.97 106.745C 316.8593 106.9381 316.65 107.0484 316.4496 107.0502M336.0496 107.0502C 335.7225 107.0469 335.4498 106.775 335.4498 106.436C 335.4498 106.101 335.7225 105.8251 336.0623 105.8251C 336.398 105.8251 336.6747 106.101 336.6747 106.436C 336.6747 106.775 336.398 107.0469 336.0496 107.0502M332.9496 105.2002C 333.1086 105.1505 333.243 105.051 333.324 104.9032C 333.494 104.6078 333.3872 104.2374 333.0996 104.0502L333.0996 104.0502L328.0496 101.2502C 328.0746 101.1449 328.0904 101.0424 328.0904 100.936C 328.0904 99.92356 327.2643 99.1002 326.2484 99.10021C 325.2365 99.10021 324.4103 99.92357 324.4103 100.936C 324.4103 101.9446 325.2365 102.768 326.2484 102.768C 326.711 102.768 327.1299 102.5907 327.4496 102.3002L327.4496 102.3002L332.4996 105.1502C 332.6382 105.2184 332.8062 105.2342 332.9496 105.2002M326.2496 101.5502C 325.9124 101.5467 325.6357 101.2709 325.6357 100.936C 325.6357 100.5972 325.9124 100.3254 326.2484 100.3254C 326.5883 100.3254 326.8611 100.5972 326.8611 100.936C 326.8611 101.2709 326.5883 101.5467 326.2496 101.5502" stroke="none" fill="#CC3935" fill-rule="evenodd" /><g clip-path="url(#2)"><g transform="matrix(0.1600742 0 0 0.1600995 0 0)"><g transform="matrix(1 0 0 1 0 0)"><image x="0" y="0" xlink:href="img_13.png" width="1752" height="3718" /></g></g></g><g clip-path="url(#3)"><path id="889" transform="matrix(1 0 0 -1 0 595)" d="M-0.00032258 141.7007L124.1497 141.7005L124.1497 141.7005L140.2496 113.9005L140.2496 113.9005L156.2997 141.7005L156.2997 141.7005L280.4496 141.7003L280.4496 141.7003L280.4494 -1.149716L280.4494 -1.149716L-0.00055114 -1.149268L-0.00055114 -1.149268L-0.00032258 141.7007zM14.0996 92.00071L14.09959 88.40071L14.09959 88.40071L265.6496 88.40031L265.6496 88.40031L265.6496 92.00031L265.6496 92.00031L14.0996 92.00071z" stroke="none" fill="#CC3935" fill-rule="evenodd" /></g><path id="921" transform="matrix(1 0 0 -1 0 595)" d="M41.05003 359.4507L251.45 359.4503L251.45 359.4503L251.45 352.5003L251.45 352.5003L217.1 311.0004L217.1 311.0004L41.04995 311.0007L41.04995 311.0007L41.05003 359.4507zM251.45 346.8503L251.4499 311.0003L251.4499 311.0003L221.75 311.0004L221.75 311.0004L251.45 346.8503z" stroke="none" fill="#CC3935" fill-rule="evenodd" /><path id="941" transform="matrix(1 0 0 -1 0 595)" d="M16.19941 55.50095L266.1494 55.45095" stroke="#FFFFFF" stroke-width="1" fill="none" /><path id="942" transform="matrix(1 0 0 -1 0 595)" d="M233.9 355.9003L43.15002 355.9006L42.65002 355.9006L42.65002 355.4006L42.64995 314.9507L42.64995 314.4507L43.14995 314.4507L233.8999 314.4503L234.3999 314.4503L234.3999 314.9503L234.4 355.4003L234.4 355.9003L233.9 355.9003zM233.4 355.4003L233.3999 314.9503L233.8999 314.9503L233.8999 315.4503L43.14995 315.4507L43.14995 314.9507L43.64995 314.9507L43.65002 355.4006L43.15002 355.4006L43.15002 354.9006L233.9 354.9003L233.9 355.4003L233.4 355.4003z" stroke="none" fill="#000000" fill-rule="nonzero" /><g transform="matrix(0.09982699 0 0 0.09983333 583.45 454.15)"><g transform="matrix(1 0 0 1 0 0)"><image x="0" y="0" xlink:href="img_14.png" width="578" height="300" /></g></g><g transform="matrix(0.05614679 0 0 0.05613207 643 452.45)"><g transform="matrix(1 0 0 1 0 0)"><image x="0" y="0" xlink:href="img_15.png" width="1090" height="636" /></g></g><g transform="matrix(0.1261962 0 0 0.1262712 704.2 447.75)"><g transform="matrix(1 0 0 1 0 0)"><image x="0" y="0" xlink:href="img_16.png" width="418" height="354" /></g></g><g transform="matrix(0.09565478 0 0 0.09566265 754.9 449.55)"><g transform="matrix(1 0 0 1 0 0)"><image x="0" y="0" xlink:href="img_17.png" width="840" height="415" /></g></g><g transform="matrix(0.1102444 0 0 0.1104027 582.9 486.7)"><g transform="matrix(1 0 0 1 0 0)"><image x="0" y="0" xlink:href="img_18.png" width="532" height="298" /></g></g><g transform="matrix(0.1093985 0 0 0.1093645 646.3 486.9)"><g transform="matrix(1 0 0 1 0 0)"><image x="0" y="0" xlink:href="img_19.png" width="532" height="299" /></g></g><g transform="matrix(0.09032921 0 0 0.09043887 708.0499 487.45)"><g transform="matrix(1 0 0 1 0 0)"><image x="0" y="0" xlink:href="img_20.png" width="486" height="319" /></g></g><g transform="matrix(0.0592 0 0 0.05926967 714.25 518.9)"><g transform="matrix(1 0 0 1 0 0)"><image x="0" y="0" xlink:href="img_21.png" width="500" height="534" /></g></g><g transform="matrix(0.09916667 0 0 0.09916667 582.8 519.75)"><g transform="matrix(1 0 0 1 0 0)"><image x="0" y="0" xlink:href="img_22.png" width="600" height="300" /></g></g><g transform="matrix(0.0992 0 0 0.0896 648.95 519.25)"><g transform="matrix(1 0 0 1 0 0)"><image x="0" y="0" xlink:href="img_23.png" width="500" height="500" /></g></g><g transform="matrix(0.1319 0 0 0.131982 762.2 481.55)"><g transform="matrix(1 0 0 1 0 0)"><image x="0" y="0" xlink:href="img_24.png" width="500" height="333" /></g></g><g transform="matrix(0.1396 0 0 0.1398045 758 514.1)"><g transform="matrix(1 0 0 1 0 0)"><image x="0" y="0" xlink:href="img_25.png" width="500" height="358" /></g></g><g transform="matrix(0.08647619 0 0 0.08664047 778.3 1.250183)"><g transform="matrix(1 0 0 1 0 0)"><image x="0" y="0" xlink:href="img_06.png" width="525" height="509" /></g></g><g transform="matrix(0.08647619 0 0 0.08664047 494.6 0.7000122)"><g transform="matrix(1 0 0 1 0 0)"><image x="0" y="0" xlink:href="img_06.png" width="525" height="509" /></g></g><g transform="matrix(0.05726667 0 0 0.05726667 194.9 453.3)"><g transform="matrix(1 0 0 1 0 0)"><image x="0" y="0" xlink:href="img_26.png" width="1500" height="1500" /></g></g><g transform="matrix(0.115942 0 0 0.1142954 5.608596 547.3748)"><g transform="matrix(1 0 0 1 0 0)"><image x="0" y="0" xlink:href="img_27.png" width="2360" height="342" /></g></g></g></g></svg>